<svg width="152" height="49" viewBox="0 0 152 49" fill="none" xmlns="http://www.w3.org/2000/svg">
<path d="M73.3672 18V6.72656H75.7266V11.3047H80.8047V6.72656H83.1641V18H80.8047V13.25H75.7266V18H73.3672ZM85.8984 18V6.72656H90.3359C91.4557 6.72656 92.4089 6.94531 93.1953 7.38281C93.9818 7.8151 94.5833 8.44531 95 9.27344C95.4167 10.1016 95.625 11.1042 95.625 12.2812V12.2969C95.625 13.5104 95.4167 14.5417 95 15.3906C94.5885 16.2396 93.9896 16.888 93.2031 17.3359C92.4167 17.7786 91.4609 18 90.3359 18H85.8984ZM88.2578 16.0547H89.9609C90.6589 16.0547 91.25 15.9115 91.7344 15.625C92.2188 15.3385 92.5859 14.9193 92.8359 14.3672C93.0911 13.8099 93.2188 13.1328 93.2188 12.3359V12.3203C93.2188 11.5443 93.0885 10.8854 92.8281 10.3438C92.5729 9.79688 92.2005 9.38281 91.7109 9.10156C91.2266 8.8151 90.6432 8.67188 89.9609 8.67188H88.2578V16.0547ZM102.797 18.2891C101.682 18.2891 100.719 18.0495 99.9062 17.5703C99.0938 17.0859 98.4661 16.401 98.0234 15.5156C97.5859 14.6302 97.3672 13.5807 97.3672 12.3672V12.3516C97.3672 11.1328 97.5885 10.0833 98.0312 9.20312C98.4792 8.31771 99.1094 7.63542 99.9219 7.15625C100.734 6.67708 101.693 6.4375 102.797 6.4375C103.906 6.4375 104.865 6.67708 105.672 7.15625C106.484 7.63542 107.112 8.31771 107.555 9.20312C107.997 10.0885 108.219 11.138 108.219 12.3516V12.3672C108.219 13.5807 107.997 14.6302 107.555 15.5156C107.117 16.401 106.492 17.0859 105.68 17.5703C104.867 18.0495 103.906 18.2891 102.797 18.2891ZM102.797 16.2891C103.406 16.2891 103.938 16.1276 104.391 15.8047C104.844 15.4818 105.193 15.026 105.438 14.4375C105.688 13.849 105.812 13.1589 105.812 12.3672V12.3516C105.812 11.5547 105.688 10.8646 105.438 10.2812C105.193 9.69271 104.844 9.23958 104.391 8.92188C103.938 8.59896 103.406 8.4375 102.797 8.4375C102.188 8.4375 101.656 8.59896 101.203 8.92188C100.75 9.23958 100.398 9.69271 100.148 10.2812C99.8984 10.8646 99.7734 11.5547 99.7734 12.3516V12.3672C99.7734 13.1589 99.8958 13.849 100.141 14.4375C100.391 15.026 100.74 15.4818 101.188 15.8047C101.641 16.1276 102.177 16.2891 102.797 16.2891Z" fill="black"/>
<path opacity="0.95" d="M72.8086 31V24.6587H73.5996V27.4009H77.0801V24.6587H77.8711V31H77.0801V28.1128H73.5996V31H72.8086ZM79.7959 32.6611C79.7461 32.6611 79.6904 32.6582 79.6289 32.6523C79.5674 32.6494 79.5103 32.6436 79.4575 32.6348V32.0063C79.5044 32.0151 79.5557 32.021 79.6113 32.0239C79.667 32.0269 79.7212 32.0283 79.7739 32.0283C79.9907 32.0283 80.168 31.9727 80.3057 31.8613C80.4463 31.75 80.5591 31.5581 80.644 31.2856L80.7319 31.0044L78.9785 26.2627H79.7959L81.2549 30.6396L80.9517 30.1606H81.312L81.0088 30.6396L82.4634 26.2627H83.2676L81.4175 31.29C81.2886 31.6445 81.1523 31.9214 81.0088 32.1206C80.8652 32.3198 80.6968 32.459 80.5034 32.5381C80.313 32.6201 80.0771 32.6611 79.7959 32.6611ZM84.2783 32.582V26.2627H85.043V27.0186H85.1133C85.21 26.8428 85.3315 26.6934 85.478 26.5703C85.6245 26.4443 85.7915 26.3477 85.979 26.2803C86.1665 26.2129 86.3701 26.1792 86.5898 26.1792C86.9912 26.1792 87.3398 26.2817 87.6357 26.4868C87.9346 26.689 88.166 26.9731 88.3301 27.3394C88.4941 27.7056 88.5762 28.1348 88.5762 28.627V28.6357C88.5762 29.1309 88.4941 29.5615 88.3301 29.9277C88.166 30.2939 87.9346 30.5781 87.6357 30.7803C87.3398 30.9824 86.9912 31.0835 86.5898 31.0835C86.373 31.0835 86.168 31.0498 85.9746 30.9824C85.7842 30.9121 85.6143 30.8154 85.4648 30.6924C85.3184 30.5693 85.2012 30.4229 85.1133 30.2529H85.043V32.582H84.2783ZM86.4141 30.4067C86.7041 30.4067 86.9517 30.3364 87.1567 30.1958C87.3618 30.0522 87.5186 29.8486 87.627 29.585C87.7383 29.3184 87.7939 29.002 87.7939 28.6357V28.627C87.7939 28.2578 87.7383 27.9414 87.627 27.6777C87.5186 27.4141 87.3618 27.2119 87.1567 27.0713C86.9517 26.9277 86.7041 26.856 86.4141 26.856C86.127 26.856 85.8794 26.9277 85.6714 27.0713C85.4634 27.2148 85.3037 27.4185 85.1924 27.6821C85.0811 27.9458 85.0254 28.2607 85.0254 28.627V28.6357C85.0254 28.999 85.0811 29.314 85.1924 29.5806C85.3037 29.8442 85.4634 30.0479 85.6714 30.1914C85.8794 30.335 86.127 30.4067 86.4141 30.4067ZM91.7183 31.0835C91.27 31.0835 90.8818 30.9854 90.5537 30.7891C90.2285 30.5898 89.9766 30.3071 89.7979 29.9409C89.6221 29.5747 89.5342 29.1396 89.5342 28.6357V28.627C89.5342 28.1201 89.6221 27.6836 89.7979 27.3174C89.9766 26.9512 90.2285 26.6699 90.5537 26.4736C90.8818 26.2773 91.27 26.1792 91.7183 26.1792C92.1694 26.1792 92.5576 26.2773 92.8828 26.4736C93.208 26.6699 93.4585 26.9512 93.6343 27.3174C93.813 27.6836 93.9023 28.1201 93.9023 28.627V28.6357C93.9023 29.1396 93.813 29.5747 93.6343 29.9409C93.4585 30.3071 93.208 30.5898 92.8828 30.7891C92.5576 30.9854 92.1694 31.0835 91.7183 31.0835ZM91.7183 30.4067C92.0171 30.4067 92.2705 30.3364 92.4785 30.1958C92.6865 30.0552 92.8447 29.853 92.9531 29.5894C93.0645 29.3257 93.1201 29.0078 93.1201 28.6357V28.627C93.1201 28.252 93.0645 27.9326 92.9531 27.6689C92.8447 27.4053 92.6865 27.2046 92.4785 27.0669C92.2705 26.9263 92.0171 26.856 91.7183 26.856C91.4194 26.856 91.166 26.9263 90.958 27.0669C90.75 27.2046 90.5903 27.4053 90.479 27.6689C90.3706 27.9326 90.3164 28.252 90.3164 28.627V28.6357C90.3164 29.0078 90.3706 29.3257 90.479 29.5894C90.5903 29.853 90.75 30.0552 90.958 30.1958C91.166 30.3364 91.4194 30.4067 91.7183 30.4067ZM96.8379 31.0835C96.4395 31.0835 96.0908 30.9824 95.792 30.7803C95.4932 30.5781 95.2617 30.2939 95.0977 29.9277C94.9336 29.5586 94.8516 29.1279 94.8516 28.6357V28.627C94.8516 28.1318 94.9336 27.7012 95.0977 27.335C95.2617 26.9688 95.4917 26.6846 95.7876 26.4824C96.0864 26.2803 96.4365 26.1792 96.8379 26.1792C97.0547 26.1792 97.2583 26.2144 97.4487 26.2847C97.6421 26.3521 97.8135 26.4473 97.9629 26.5703C98.1123 26.6934 98.2295 26.8398 98.3145 27.0098H98.3848V24.3818H99.1494V31H98.3848V30.2441H98.3145C98.2178 30.4199 98.0962 30.5708 97.9497 30.6968C97.8032 30.8198 97.6362 30.915 97.4487 30.9824C97.2612 31.0498 97.0576 31.0835 96.8379 31.0835ZM97.0137 30.4067C97.3008 30.4067 97.5483 30.335 97.7563 30.1914C97.9644 30.0479 98.124 29.8442 98.2354 29.5806C98.3467 29.314 98.4023 28.999 98.4023 28.6357V28.627C98.4023 28.2607 98.3467 27.9458 98.2354 27.6821C98.124 27.4185 97.9644 27.2148 97.7563 27.0713C97.5483 26.9277 97.3008 26.856 97.0137 26.856C96.7266 26.856 96.479 26.9277 96.271 27.0713C96.0659 27.2119 95.9077 27.4141 95.7964 27.6777C95.688 27.9414 95.6338 28.2578 95.6338 28.627V28.6357C95.6338 29.002 95.688 29.3184 95.7964 29.585C95.9077 29.8486 96.0659 30.0522 96.271 30.1958C96.479 30.3364 96.7266 30.4067 97.0137 30.4067ZM102.564 31.0835C102.116 31.0835 101.728 30.9854 101.399 30.7891C101.074 30.5898 100.822 30.3071 100.644 29.9409C100.468 29.5747 100.38 29.1396 100.38 28.6357V28.627C100.38 28.1201 100.468 27.6836 100.644 27.3174C100.822 26.9512 101.074 26.6699 101.399 26.4736C101.728 26.2773 102.116 26.1792 102.564 26.1792C103.015 26.1792 103.403 26.2773 103.729 26.4736C104.054 26.6699 104.304 26.9512 104.48 27.3174C104.659 27.6836 104.748 28.1201 104.748 28.627V28.6357C104.748 29.1396 104.659 29.5747 104.48 29.9409C104.304 30.3071 104.054 30.5898 103.729 30.7891C103.403 30.9854 103.015 31.0835 102.564 31.0835ZM102.564 30.4067C102.863 30.4067 103.116 30.3364 103.324 30.1958C103.532 30.0552 103.69 29.853 103.799 29.5894C103.91 29.3257 103.966 29.0078 103.966 28.6357V28.627C103.966 28.252 103.91 27.9326 103.799 27.6689C103.69 27.4053 103.532 27.2046 103.324 27.0669C103.116 26.9263 102.863 26.856 102.564 26.856C102.265 26.856 102.012 26.9263 101.804 27.0669C101.596 27.2046 101.436 27.4053 101.325 27.6689C101.216 27.9326 101.162 28.252 101.162 28.627V28.6357C101.162 29.0078 101.216 29.3257 101.325 29.5894C101.436 29.853 101.596 30.0552 101.804 30.1958C102.012 30.3364 102.265 30.4067 102.564 30.4067ZM105.935 31V26.2627H106.699V26.9834H106.77C106.875 26.7285 107.036 26.5308 107.253 26.3901C107.473 26.2495 107.738 26.1792 108.048 26.1792C108.262 26.1792 108.454 26.2144 108.624 26.2847C108.794 26.355 108.94 26.4531 109.063 26.5791C109.187 26.7021 109.285 26.8457 109.358 27.0098H109.428C109.513 26.8428 109.627 26.6978 109.771 26.5747C109.915 26.4487 110.08 26.3521 110.268 26.2847C110.458 26.2144 110.662 26.1792 110.878 26.1792C111.201 26.1792 111.473 26.2393 111.696 26.3594C111.921 26.4795 112.093 26.6553 112.21 26.8867C112.327 27.1152 112.386 27.395 112.386 27.7261V31H111.621V27.9019C111.621 27.6675 111.584 27.4741 111.511 27.3218C111.441 27.1665 111.333 27.0508 111.186 26.9746C111.04 26.8955 110.855 26.856 110.632 26.856C110.413 26.856 110.221 26.9058 110.057 27.0054C109.893 27.105 109.765 27.2383 109.674 27.4053C109.583 27.5693 109.538 27.7524 109.538 27.9546V31H108.773V27.7832C108.773 27.5957 108.732 27.4331 108.65 27.2954C108.571 27.1548 108.457 27.0464 108.308 26.9702C108.161 26.894 107.988 26.856 107.789 26.856C107.584 26.856 107.398 26.9102 107.231 27.0186C107.067 27.127 106.937 27.2734 106.84 27.458C106.746 27.6396 106.699 27.8418 106.699 28.0645V31H105.935ZM115.699 31.0835C115.248 31.0835 114.86 30.9839 114.535 30.7847C114.212 30.5854 113.963 30.3042 113.788 29.9409C113.615 29.5747 113.528 29.144 113.528 28.6489V28.6445C113.528 28.1553 113.615 27.7261 113.788 27.3569C113.963 26.9878 114.211 26.6992 114.53 26.4912C114.85 26.2832 115.223 26.1792 115.651 26.1792C116.082 26.1792 116.451 26.2788 116.758 26.478C117.069 26.6772 117.306 26.9556 117.47 27.313C117.637 27.6675 117.721 28.0806 117.721 28.5522V28.8511H113.924V28.2402H117.33L116.952 28.7983V28.4951C116.952 28.123 116.896 27.8169 116.785 27.5767C116.673 27.3364 116.52 27.1577 116.323 27.0405C116.127 26.9204 115.901 26.8604 115.646 26.8604C115.392 26.8604 115.163 26.9233 114.961 27.0493C114.762 27.1724 114.604 27.3555 114.486 27.5986C114.369 27.8418 114.311 28.1406 114.311 28.4951V28.7983C114.311 29.1353 114.368 29.4238 114.482 29.6641C114.596 29.9014 114.759 30.0845 114.97 30.2134C115.181 30.3394 115.43 30.4023 115.717 30.4023C115.931 30.4023 116.117 30.373 116.275 30.3145C116.433 30.2559 116.563 30.1812 116.666 30.0903C116.769 29.9995 116.84 29.9072 116.881 29.8135L116.899 29.7739H117.664L117.655 29.8091C117.614 29.9702 117.541 30.127 117.435 30.2793C117.333 30.4287 117.199 30.5649 117.035 30.688C116.871 30.8081 116.676 30.9048 116.451 30.978C116.228 31.0483 115.978 31.0835 115.699 31.0835ZM75.4717 45.1494C74.8652 45.1494 74.3452 45.0146 73.9116 44.7451C73.478 44.4727 73.144 44.0874 72.9097 43.5894C72.6782 43.0913 72.5625 42.5054 72.5625 41.8315V41.8228C72.5625 41.1431 72.6797 40.5557 72.9141 40.0605C73.1514 39.5654 73.4868 39.1831 73.9204 38.9136C74.3569 38.644 74.874 38.5093 75.4717 38.5093C76.0723 38.5093 76.5894 38.644 77.0229 38.9136C77.4595 39.1831 77.7949 39.5669 78.0293 40.0649C78.2637 40.5601 78.3809 41.146 78.3809 41.8228V41.8315C78.3809 42.5054 78.2637 43.0913 78.0293 43.5894C77.7979 44.0845 77.4639 44.4683 77.0273 44.7407C76.5938 45.0132 76.0752 45.1494 75.4717 45.1494ZM75.4717 44.4199C75.9053 44.4199 76.2788 44.313 76.5923 44.0991C76.9058 43.8853 77.1475 43.585 77.3174 43.1982C77.4873 42.8086 77.5723 42.353 77.5723 41.8315V41.8228C77.5723 41.2954 77.4873 40.8384 77.3174 40.4517C77.1475 40.0649 76.9058 39.7661 76.5923 39.5552C76.2788 39.3442 75.9053 39.2388 75.4717 39.2388C75.041 39.2388 74.6689 39.3442 74.3555 39.5552C74.042 39.7661 73.7988 40.0649 73.626 40.4517C73.4561 40.8384 73.3711 41.2954 73.3711 41.8228V41.8315C73.3711 42.353 73.4546 42.8086 73.6216 43.1982C73.7886 43.585 74.0288 43.8853 74.3423 44.0991C74.6558 44.313 75.0322 44.4199 75.4717 44.4199ZM79.6553 45V40.2627H80.4199V40.9658H80.4902C80.5811 40.7168 80.7349 40.5234 80.9517 40.3857C81.1685 40.248 81.4365 40.1792 81.7559 40.1792C81.8291 40.1792 81.9009 40.1836 81.9712 40.1924C82.0444 40.1982 82.1001 40.2041 82.1382 40.21V40.9526C82.0591 40.938 81.9814 40.9277 81.9053 40.9219C81.832 40.9131 81.7529 40.9087 81.668 40.9087C81.4248 40.9087 81.2095 40.957 81.022 41.0537C80.8345 41.1504 80.6865 41.2852 80.5781 41.458C80.4727 41.6309 80.4199 41.833 80.4199 42.0645V45H79.6553ZM83.1006 45V40.2627H83.8652V45H83.1006ZM83.4873 39.3486C83.3438 39.3486 83.2192 39.2974 83.1138 39.1948C83.0112 39.0894 82.96 38.9648 82.96 38.8213C82.96 38.6748 83.0112 38.5503 83.1138 38.4478C83.2192 38.3452 83.3438 38.2939 83.4873 38.2939C83.6338 38.2939 83.7583 38.3452 83.8608 38.4478C83.9634 38.5503 84.0146 38.6748 84.0146 38.8213C84.0146 38.9648 83.9634 39.0894 83.8608 39.1948C83.7583 39.2974 83.6338 39.3486 83.4873 39.3486ZM87.2578 46.6699C86.877 46.6699 86.5444 46.6157 86.2603 46.5073C85.9761 46.4019 85.749 46.251 85.5791 46.0547C85.4121 45.8613 85.3081 45.6357 85.2671 45.3779L85.2759 45.3735H86.0669L86.0713 45.3779C86.1123 45.5566 86.2354 45.7031 86.4404 45.8174C86.6455 45.9346 86.918 45.9932 87.2578 45.9932C87.6826 45.9932 88.0137 45.8965 88.251 45.7031C88.4912 45.5127 88.6113 45.2432 88.6113 44.8945V43.9365H88.541C88.4414 44.1094 88.3169 44.2573 88.1675 44.3804C88.0181 44.5034 87.8496 44.5972 87.6621 44.6616C87.4746 44.7231 87.2725 44.7539 87.0557 44.7539C86.6484 44.7539 86.2954 44.6572 85.9966 44.4639C85.7007 44.2676 85.4722 43.998 85.311 43.6553C85.1499 43.3125 85.0693 42.9199 85.0693 42.4775V42.4688C85.0693 42.0264 85.1499 41.6338 85.311 41.291C85.4751 40.9453 85.7065 40.6743 86.0054 40.478C86.3042 40.2788 86.6602 40.1792 87.0732 40.1792C87.2959 40.1792 87.501 40.2144 87.6885 40.2847C87.876 40.355 88.0415 40.4546 88.1851 40.5835C88.3315 40.7124 88.4531 40.8662 88.5498 41.0449H88.6025V40.2627H89.3672V44.9341C89.3672 45.2856 89.2808 45.5918 89.1079 45.8525C88.938 46.1133 88.6948 46.314 88.3784 46.4546C88.062 46.5981 87.6885 46.6699 87.2578 46.6699ZM87.2227 44.0771C87.5156 44.0771 87.7661 44.0098 87.9741 43.875C88.1851 43.7373 88.3462 43.5483 88.4575 43.3081C88.5718 43.0679 88.6289 42.791 88.6289 42.4775V42.4688C88.6289 42.1553 88.5718 41.877 88.4575 41.6338C88.3462 41.3906 88.1851 41.2002 87.9741 41.0625C87.7661 40.9248 87.5156 40.856 87.2227 40.856C86.9297 40.856 86.6807 40.9248 86.4756 41.0625C86.2734 41.2002 86.1182 41.3906 86.0098 41.6338C85.9043 41.877 85.8516 42.1553 85.8516 42.4688V42.4775C85.8516 42.791 85.9043 43.0679 86.0098 43.3081C86.1182 43.5483 86.2734 43.7373 86.4756 43.875C86.6807 44.0098 86.9297 44.0771 87.2227 44.0771ZM90.8086 45V40.2627H91.5732V45H90.8086ZM91.1953 39.3486C91.0518 39.3486 90.9272 39.2974 90.8218 39.1948C90.7192 39.0894 90.668 38.9648 90.668 38.8213C90.668 38.6748 90.7192 38.5503 90.8218 38.4478C90.9272 38.3452 91.0518 38.2939 91.1953 38.2939C91.3418 38.2939 91.4663 38.3452 91.5688 38.4478C91.6714 38.5503 91.7227 38.6748 91.7227 38.8213C91.7227 38.9648 91.6714 39.0894 91.5688 39.1948C91.4663 39.2974 91.3418 39.3486 91.1953 39.3486ZM93.0146 45V40.2627H93.7793V40.9746H93.8496C93.9697 40.7227 94.1426 40.5278 94.3682 40.3901C94.5938 40.2495 94.8809 40.1792 95.2295 40.1792C95.7627 40.1792 96.1714 40.3315 96.4556 40.6362C96.7427 40.938 96.8862 41.3701 96.8862 41.9326V45H96.1216V42.1172C96.1216 41.6895 96.0308 41.373 95.8491 41.168C95.6704 40.96 95.3921 40.856 95.0142 40.856C94.7622 40.856 94.5439 40.9102 94.3594 41.0186C94.1748 41.127 94.0312 41.2808 93.9287 41.48C93.8291 41.6792 93.7793 41.918 93.7793 42.1963V45H93.0146ZM99.5713 45.0835C99.2725 45.0835 99.0029 45.0264 98.7627 44.9121C98.5254 44.7979 98.3364 44.6353 98.1958 44.4243C98.0581 44.2134 97.9893 43.9644 97.9893 43.6772V43.6685C97.9893 43.3872 98.0566 43.147 98.1914 42.9478C98.3262 42.7456 98.5225 42.5874 98.7803 42.4731C99.0381 42.3589 99.3501 42.2915 99.7163 42.271L101.457 42.1655V42.7764L99.8086 42.8818C99.4482 42.9023 99.1846 42.9771 99.0176 43.106C98.8535 43.2349 98.7715 43.4165 98.7715 43.6509V43.6597C98.7715 43.8999 98.8623 44.0874 99.0439 44.2222C99.2256 44.354 99.4541 44.4199 99.7295 44.4199C99.9902 44.4199 100.222 44.3687 100.424 44.2661C100.626 44.1606 100.784 44.0186 100.898 43.8398C101.016 43.6611 101.074 43.459 101.074 43.2334V41.7568C101.074 41.4639 100.985 41.2412 100.806 41.0889C100.63 40.9336 100.365 40.856 100.011 40.856C99.7266 40.856 99.4937 40.9072 99.312 41.0098C99.1304 41.1094 99.0088 41.2515 98.9473 41.436L98.9429 41.4492H98.1782L98.1826 41.4229C98.2236 41.1738 98.3262 40.957 98.4902 40.7725C98.6572 40.585 98.8726 40.4399 99.1362 40.3374C99.3999 40.2319 99.7002 40.1792 100.037 40.1792C100.424 40.1792 100.75 40.2422 101.017 40.3682C101.287 40.4941 101.49 40.6758 101.628 40.9131C101.769 41.1475 101.839 41.4287 101.839 41.7568V45H101.074V44.3013H101.004C100.904 44.4683 100.783 44.6104 100.639 44.7275C100.499 44.8447 100.339 44.9341 100.16 44.9956C99.9814 45.0542 99.7852 45.0835 99.5713 45.0835ZM104.919 45.0352C104.433 45.0352 104.08 44.937 103.86 44.7407C103.644 44.5444 103.535 44.2207 103.535 43.7695V40.8955H102.788V40.2627H103.535V39.0366H104.326V40.2627H105.363V40.8955H104.326V43.5762C104.326 43.8545 104.379 44.0552 104.484 44.1782C104.59 44.2983 104.766 44.3584 105.012 44.3584C105.079 44.3584 105.136 44.3569 105.183 44.354C105.233 44.3511 105.293 44.3467 105.363 44.3408V44.9912C105.29 45.0029 105.217 45.0132 105.144 45.022C105.07 45.0308 104.996 45.0352 104.919 45.0352ZM106.523 45V40.2627H107.288V45H106.523ZM106.91 39.3486C106.767 39.3486 106.642 39.2974 106.537 39.1948C106.434 39.0894 106.383 38.9648 106.383 38.8213C106.383 38.6748 106.434 38.5503 106.537 38.4478C106.642 38.3452 106.767 38.2939 106.91 38.2939C107.057 38.2939 107.181 38.3452 107.284 38.4478C107.386 38.5503 107.438 38.6748 107.438 38.8213C107.438 38.9648 107.386 39.0894 107.284 39.1948C107.181 39.2974 107.057 39.3486 106.91 39.3486ZM110.676 45.0835C110.228 45.0835 109.84 44.9854 109.512 44.7891C109.187 44.5898 108.935 44.3071 108.756 43.9409C108.58 43.5747 108.492 43.1396 108.492 42.6357V42.627C108.492 42.1201 108.58 41.6836 108.756 41.3174C108.935 40.9512 109.187 40.6699 109.512 40.4736C109.84 40.2773 110.228 40.1792 110.676 40.1792C111.127 40.1792 111.516 40.2773 111.841 40.4736C112.166 40.6699 112.417 40.9512 112.592 41.3174C112.771 41.6836 112.86 42.1201 112.86 42.627V42.6357C112.86 43.1396 112.771 43.5747 112.592 43.9409C112.417 44.3071 112.166 44.5898 111.841 44.7891C111.516 44.9854 111.127 45.0835 110.676 45.0835ZM110.676 44.4067C110.975 44.4067 111.229 44.3364 111.437 44.1958C111.645 44.0552 111.803 43.853 111.911 43.5894C112.022 43.3257 112.078 43.0078 112.078 42.6357V42.627C112.078 42.252 112.022 41.9326 111.911 41.6689C111.803 41.4053 111.645 41.2046 111.437 41.0669C111.229 40.9263 110.975 40.856 110.676 40.856C110.377 40.856 110.124 40.9263 109.916 41.0669C109.708 41.2046 109.548 41.4053 109.437 41.6689C109.329 41.9326 109.274 42.252 109.274 42.627V42.6357C109.274 43.0078 109.329 43.3257 109.437 43.5894C109.548 43.853 109.708 44.0552 109.916 44.1958C110.124 44.3364 110.377 44.4067 110.676 44.4067ZM114.047 45V40.2627H114.812V40.9746H114.882C115.002 40.7227 115.175 40.5278 115.4 40.3901C115.626 40.2495 115.913 40.1792 116.262 40.1792C116.795 40.1792 117.204 40.3315 117.488 40.6362C117.775 40.938 117.918 41.3701 117.918 41.9326V45H117.154V42.1172C117.154 41.6895 117.063 41.373 116.881 41.168C116.703 40.96 116.424 40.856 116.046 40.856C115.794 40.856 115.576 40.9102 115.392 41.0186C115.207 41.127 115.063 41.2808 114.961 41.48C114.861 41.6792 114.812 41.918 114.812 42.1963V45H114.047Z" fill="black"/>
<path d="M17 40H52.5" stroke="#0F3758" stroke-width="2.5"/>
<path d="M34.3455 6.09193C39.7621 6.09691 44.5592 9.19898 47.8926 13.8989C51.2341 18.6108 53.2647 25.0974 53.301 32.5319C53.3019 32.7097 53.3003 32.8871 53.2987 33.0642L47.2988 33.0935C47.3009 32.9166 47.3019 32.7392 47.3011 32.5612C47.2698 26.1609 45.5192 20.9237 42.9983 17.3691C40.4689 13.8028 37.32 12.0948 34.3406 12.092C31.4155 12.0893 28.4344 13.7748 26.0635 17.3532C23.6914 20.9335 22.0979 26.2222 22.1294 32.6685C22.1303 32.8517 22.1333 33.0343 22.137 33.2163L16.137 33.2456C16.1338 33.0634 16.1304 32.8808 16.1295 32.6978C16.0934 25.3089 17.9094 18.7979 21.0619 14.0397C24.2155 9.27983 28.8748 6.08707 34.3455 6.09193Z" fill="#0F3758" fill-opacity="0.9"/>
<path d="M8 0.150391H144C148.335 0.150391 151.85 3.66456 151.85 8V41C151.85 45.3354 148.335 48.8496 144 48.8496H8C3.66456 48.8496 0.150391 45.3354 0.150391 41V8C0.150391 3.66456 3.66456 0.150391 8 0.150391Z" stroke="#0F3758" stroke-width="0.3"/>
</svg>
