<svg width="152" height="49" viewBox="0 0 152 49" fill="none" xmlns="http://www.w3.org/2000/svg">
<path d="M73.3672 18V6.72656H75.7266V11.3047H80.8047V6.72656H83.1641V18H80.8047V13.25H75.7266V18H73.3672ZM85.8984 18V6.72656H90.3359C91.4557 6.72656 92.4089 6.94531 93.1953 7.38281C93.9818 7.8151 94.5833 8.44531 95 9.27344C95.4167 10.1016 95.625 11.1042 95.625 12.2812V12.2969C95.625 13.5104 95.4167 14.5417 95 15.3906C94.5885 16.2396 93.9896 16.888 93.2031 17.3359C92.4167 17.7786 91.4609 18 90.3359 18H85.8984ZM88.2578 16.0547H89.9609C90.6589 16.0547 91.25 15.9115 91.7344 15.625C92.2188 15.3385 92.5859 14.9193 92.8359 14.3672C93.0911 13.8099 93.2188 13.1328 93.2188 12.3359V12.3203C93.2188 11.5443 93.0885 10.8854 92.8281 10.3438C92.5729 9.79688 92.2005 9.38281 91.7109 9.10156C91.2266 8.8151 90.6432 8.67188 89.9609 8.67188H88.2578V16.0547ZM101.898 18.2891C101.003 18.2891 100.224 18.1536 99.5625 17.8828C98.901 17.612 98.3802 17.2318 98 16.7422C97.625 16.2474 97.4141 15.6667 97.3672 15L97.3594 14.875H99.6328L99.6406 14.9531C99.6719 15.2344 99.7865 15.4818 99.9844 15.6953C100.188 15.9036 100.458 16.0677 100.797 16.1875C101.135 16.3073 101.523 16.3672 101.961 16.3672C102.383 16.3672 102.753 16.3047 103.07 16.1797C103.388 16.0547 103.635 15.8828 103.812 15.6641C103.995 15.4401 104.086 15.1849 104.086 14.8984V14.8906C104.086 14.5208 103.935 14.224 103.633 14C103.336 13.776 102.836 13.5911 102.133 13.4453L100.945 13.2031C99.7734 12.9635 98.9219 12.5703 98.3906 12.0234C97.8594 11.4766 97.5938 10.776 97.5938 9.92188V9.91406C97.5938 9.21615 97.7786 8.60677 98.1484 8.08594C98.5182 7.5651 99.026 7.16146 99.6719 6.875C100.318 6.58333 101.057 6.4375 101.891 6.4375C102.766 6.4375 103.516 6.58073 104.141 6.86719C104.771 7.14844 105.263 7.53646 105.617 8.03125C105.971 8.52083 106.172 9.08073 106.219 9.71094L106.227 9.8125H104.008L103.992 9.71875C103.945 9.44792 103.831 9.21094 103.648 9.00781C103.471 8.80469 103.232 8.64583 102.93 8.53125C102.633 8.41146 102.286 8.35156 101.891 8.35156C101.505 8.35156 101.167 8.40885 100.875 8.52344C100.583 8.63802 100.357 8.79948 100.195 9.00781C100.034 9.21094 99.9531 9.45312 99.9531 9.73438V9.74219C99.9531 10.1068 100.099 10.4062 100.391 10.6406C100.688 10.8698 101.167 11.0521 101.828 11.1875L103.023 11.4297C103.82 11.5911 104.469 11.8099 104.969 12.0859C105.474 12.362 105.846 12.7083 106.086 13.125C106.326 13.5417 106.445 14.0443 106.445 14.6328V14.6406C106.445 15.3854 106.26 16.0312 105.891 16.5781C105.526 17.1198 105.003 17.5417 104.32 17.8438C103.643 18.1406 102.836 18.2891 101.898 18.2891Z" fill="black"/>
<path opacity="0.95" d="M72.8086 31V24.6587H73.5996V27.4009H77.0801V24.6587H77.8711V31H77.0801V28.1128H73.5996V31H72.8086ZM79.7959 32.6611C79.7461 32.6611 79.6904 32.6582 79.6289 32.6523C79.5674 32.6494 79.5103 32.6436 79.4575 32.6348V32.0063C79.5044 32.0151 79.5557 32.021 79.6113 32.0239C79.667 32.0269 79.7212 32.0283 79.7739 32.0283C79.9907 32.0283 80.168 31.9727 80.3057 31.8613C80.4463 31.75 80.5591 31.5581 80.644 31.2856L80.7319 31.0044L78.9785 26.2627H79.7959L81.2549 30.6396L80.9517 30.1606H81.312L81.0088 30.6396L82.4634 26.2627H83.2676L81.4175 31.29C81.2886 31.6445 81.1523 31.9214 81.0088 32.1206C80.8652 32.3198 80.6968 32.459 80.5034 32.5381C80.313 32.6201 80.0771 32.6611 79.7959 32.6611ZM84.2783 32.582V26.2627H85.043V27.0186H85.1133C85.21 26.8428 85.3315 26.6934 85.478 26.5703C85.6245 26.4443 85.7915 26.3477 85.979 26.2803C86.1665 26.2129 86.3701 26.1792 86.5898 26.1792C86.9912 26.1792 87.3398 26.2817 87.6357 26.4868C87.9346 26.689 88.166 26.9731 88.3301 27.3394C88.4941 27.7056 88.5762 28.1348 88.5762 28.627V28.6357C88.5762 29.1309 88.4941 29.5615 88.3301 29.9277C88.166 30.2939 87.9346 30.5781 87.6357 30.7803C87.3398 30.9824 86.9912 31.0835 86.5898 31.0835C86.373 31.0835 86.168 31.0498 85.9746 30.9824C85.7842 30.9121 85.6143 30.8154 85.4648 30.6924C85.3184 30.5693 85.2012 30.4229 85.1133 30.2529H85.043V32.582H84.2783ZM86.4141 30.4067C86.7041 30.4067 86.9517 30.3364 87.1567 30.1958C87.3618 30.0522 87.5186 29.8486 87.627 29.585C87.7383 29.3184 87.7939 29.002 87.7939 28.6357V28.627C87.7939 28.2578 87.7383 27.9414 87.627 27.6777C87.5186 27.4141 87.3618 27.2119 87.1567 27.0713C86.9517 26.9277 86.7041 26.856 86.4141 26.856C86.127 26.856 85.8794 26.9277 85.6714 27.0713C85.4634 27.2148 85.3037 27.4185 85.1924 27.6821C85.0811 27.9458 85.0254 28.2607 85.0254 28.627V28.6357C85.0254 28.999 85.0811 29.314 85.1924 29.5806C85.3037 29.8442 85.4634 30.0479 85.6714 30.1914C85.8794 30.335 86.127 30.4067 86.4141 30.4067ZM91.7183 31.0835C91.27 31.0835 90.8818 30.9854 90.5537 30.7891C90.2285 30.5898 89.9766 30.3071 89.7979 29.9409C89.6221 29.5747 89.5342 29.1396 89.5342 28.6357V28.627C89.5342 28.1201 89.6221 27.6836 89.7979 27.3174C89.9766 26.9512 90.2285 26.6699 90.5537 26.4736C90.8818 26.2773 91.27 26.1792 91.7183 26.1792C92.1694 26.1792 92.5576 26.2773 92.8828 26.4736C93.208 26.6699 93.4585 26.9512 93.6343 27.3174C93.813 27.6836 93.9023 28.1201 93.9023 28.627V28.6357C93.9023 29.1396 93.813 29.5747 93.6343 29.9409C93.4585 30.3071 93.208 30.5898 92.8828 30.7891C92.5576 30.9854 92.1694 31.0835 91.7183 31.0835ZM91.7183 30.4067C92.0171 30.4067 92.2705 30.3364 92.4785 30.1958C92.6865 30.0552 92.8447 29.853 92.9531 29.5894C93.0645 29.3257 93.1201 29.0078 93.1201 28.6357V28.627C93.1201 28.252 93.0645 27.9326 92.9531 27.6689C92.8447 27.4053 92.6865 27.2046 92.4785 27.0669C92.2705 26.9263 92.0171 26.856 91.7183 26.856C91.4194 26.856 91.166 26.9263 90.958 27.0669C90.75 27.2046 90.5903 27.4053 90.479 27.6689C90.3706 27.9326 90.3164 28.252 90.3164 28.627V28.6357C90.3164 29.0078 90.3706 29.3257 90.479 29.5894C90.5903 29.853 90.75 30.0552 90.958 30.1958C91.166 30.3364 91.4194 30.4067 91.7183 30.4067ZM96.8379 31.0835C96.4395 31.0835 96.0908 30.9824 95.792 30.7803C95.4932 30.5781 95.2617 30.2939 95.0977 29.9277C94.9336 29.5586 94.8516 29.1279 94.8516 28.6357V28.627C94.8516 28.1318 94.9336 27.7012 95.0977 27.335C95.2617 26.9688 95.4917 26.6846 95.7876 26.4824C96.0864 26.2803 96.4365 26.1792 96.8379 26.1792C97.0547 26.1792 97.2583 26.2144 97.4487 26.2847C97.6421 26.3521 97.8135 26.4473 97.9629 26.5703C98.1123 26.6934 98.2295 26.8398 98.3145 27.0098H98.3848V24.3818H99.1494V31H98.3848V30.2441H98.3145C98.2178 30.4199 98.0962 30.5708 97.9497 30.6968C97.8032 30.8198 97.6362 30.915 97.4487 30.9824C97.2612 31.0498 97.0576 31.0835 96.8379 31.0835ZM97.0137 30.4067C97.3008 30.4067 97.5483 30.335 97.7563 30.1914C97.9644 30.0479 98.124 29.8442 98.2354 29.5806C98.3467 29.314 98.4023 28.999 98.4023 28.6357V28.627C98.4023 28.2607 98.3467 27.9458 98.2354 27.6821C98.124 27.4185 97.9644 27.2148 97.7563 27.0713C97.5483 26.9277 97.3008 26.856 97.0137 26.856C96.7266 26.856 96.479 26.9277 96.271 27.0713C96.0659 27.2119 95.9077 27.4141 95.7964 27.6777C95.688 27.9414 95.6338 28.2578 95.6338 28.627V28.6357C95.6338 29.002 95.688 29.3184 95.7964 29.585C95.9077 29.8486 96.0659 30.0522 96.271 30.1958C96.479 30.3364 96.7266 30.4067 97.0137 30.4067ZM102.564 31.0835C102.116 31.0835 101.728 30.9854 101.399 30.7891C101.074 30.5898 100.822 30.3071 100.644 29.9409C100.468 29.5747 100.38 29.1396 100.38 28.6357V28.627C100.38 28.1201 100.468 27.6836 100.644 27.3174C100.822 26.9512 101.074 26.6699 101.399 26.4736C101.728 26.2773 102.116 26.1792 102.564 26.1792C103.015 26.1792 103.403 26.2773 103.729 26.4736C104.054 26.6699 104.304 26.9512 104.48 27.3174C104.659 27.6836 104.748 28.1201 104.748 28.627V28.6357C104.748 29.1396 104.659 29.5747 104.48 29.9409C104.304 30.3071 104.054 30.5898 103.729 30.7891C103.403 30.9854 103.015 31.0835 102.564 31.0835ZM102.564 30.4067C102.863 30.4067 103.116 30.3364 103.324 30.1958C103.532 30.0552 103.69 29.853 103.799 29.5894C103.91 29.3257 103.966 29.0078 103.966 28.6357V28.627C103.966 28.252 103.91 27.9326 103.799 27.6689C103.69 27.4053 103.532 27.2046 103.324 27.0669C103.116 26.9263 102.863 26.856 102.564 26.856C102.265 26.856 102.012 26.9263 101.804 27.0669C101.596 27.2046 101.436 27.4053 101.325 27.6689C101.216 27.9326 101.162 28.252 101.162 28.627V28.6357C101.162 29.0078 101.216 29.3257 101.325 29.5894C101.436 29.853 101.596 30.0552 101.804 30.1958C102.012 30.3364 102.265 30.4067 102.564 30.4067ZM105.935 31V26.2627H106.699V26.9834H106.77C106.875 26.7285 107.036 26.5308 107.253 26.3901C107.473 26.2495 107.738 26.1792 108.048 26.1792C108.262 26.1792 108.454 26.2144 108.624 26.2847C108.794 26.355 108.94 26.4531 109.063 26.5791C109.187 26.7021 109.285 26.8457 109.358 27.0098H109.428C109.513 26.8428 109.627 26.6978 109.771 26.5747C109.915 26.4487 110.08 26.3521 110.268 26.2847C110.458 26.2144 110.662 26.1792 110.878 26.1792C111.201 26.1792 111.473 26.2393 111.696 26.3594C111.921 26.4795 112.093 26.6553 112.21 26.8867C112.327 27.1152 112.386 27.395 112.386 27.7261V31H111.621V27.9019C111.621 27.6675 111.584 27.4741 111.511 27.3218C111.441 27.1665 111.333 27.0508 111.186 26.9746C111.04 26.8955 110.855 26.856 110.632 26.856C110.413 26.856 110.221 26.9058 110.057 27.0054C109.893 27.105 109.765 27.2383 109.674 27.4053C109.583 27.5693 109.538 27.7524 109.538 27.9546V31H108.773V27.7832C108.773 27.5957 108.732 27.4331 108.65 27.2954C108.571 27.1548 108.457 27.0464 108.308 26.9702C108.161 26.894 107.988 26.856 107.789 26.856C107.584 26.856 107.398 26.9102 107.231 27.0186C107.067 27.127 106.937 27.2734 106.84 27.458C106.746 27.6396 106.699 27.8418 106.699 28.0645V31H105.935ZM115.699 31.0835C115.248 31.0835 114.86 30.9839 114.535 30.7847C114.212 30.5854 113.963 30.3042 113.788 29.9409C113.615 29.5747 113.528 29.144 113.528 28.6489V28.6445C113.528 28.1553 113.615 27.7261 113.788 27.3569C113.963 26.9878 114.211 26.6992 114.53 26.4912C114.85 26.2832 115.223 26.1792 115.651 26.1792C116.082 26.1792 116.451 26.2788 116.758 26.478C117.069 26.6772 117.306 26.9556 117.47 27.313C117.637 27.6675 117.721 28.0806 117.721 28.5522V28.8511H113.924V28.2402H117.33L116.952 28.7983V28.4951C116.952 28.123 116.896 27.8169 116.785 27.5767C116.673 27.3364 116.52 27.1577 116.323 27.0405C116.127 26.9204 115.901 26.8604 115.646 26.8604C115.392 26.8604 115.163 26.9233 114.961 27.0493C114.762 27.1724 114.604 27.3555 114.486 27.5986C114.369 27.8418 114.311 28.1406 114.311 28.4951V28.7983C114.311 29.1353 114.368 29.4238 114.482 29.6641C114.596 29.9014 114.759 30.0845 114.97 30.2134C115.181 30.3394 115.43 30.4023 115.717 30.4023C115.931 30.4023 116.117 30.373 116.275 30.3145C116.433 30.2559 116.563 30.1812 116.666 30.0903C116.769 29.9995 116.84 29.9072 116.881 29.8135L116.899 29.7739H117.664L117.655 29.8091C117.614 29.9702 117.541 30.127 117.435 30.2793C117.333 30.4287 117.199 30.5649 117.035 30.688C116.871 30.8081 116.676 30.9048 116.451 30.978C116.228 31.0483 115.978 31.0835 115.699 31.0835ZM74.8872 44.1494C74.4243 44.1494 74.02 44.0747 73.6743 43.9253C73.3315 43.7729 73.0591 43.5649 72.8569 43.3013C72.6577 43.0347 72.542 42.73 72.5098 42.3872L72.5054 42.3389H73.2964L73.3008 42.3872C73.3213 42.5981 73.4019 42.7812 73.5425 42.9365C73.686 43.0889 73.8765 43.2075 74.1138 43.2925C74.354 43.3774 74.6265 43.4199 74.9312 43.4199C75.2183 43.4199 75.4731 43.3745 75.6958 43.2837C75.9214 43.1899 76.0986 43.061 76.2275 42.897C76.3564 42.7329 76.4209 42.5439 76.4209 42.3301V42.3257C76.4209 42.062 76.3242 41.8408 76.1309 41.6621C75.9375 41.4805 75.6226 41.3413 75.186 41.2446L74.4829 41.0908C73.8472 40.9502 73.3843 40.7334 73.0942 40.4404C72.8071 40.1445 72.6636 39.7666 72.6636 39.3066V39.3022C72.6665 38.9507 72.7617 38.6401 72.9492 38.3706C73.1396 38.1011 73.4019 37.8901 73.7358 37.7378C74.0728 37.5854 74.4595 37.5093 74.896 37.5093C75.3179 37.5093 75.6914 37.5854 76.0166 37.7378C76.3418 37.8872 76.5996 38.0894 76.79 38.3442C76.9834 38.5991 77.0903 38.8848 77.1108 39.2012L77.1152 39.2627H76.3242L76.3154 39.2056C76.2861 39.0181 76.21 38.8525 76.0869 38.709C75.9639 38.5625 75.7998 38.4468 75.5947 38.3618C75.3896 38.2769 75.1494 38.2358 74.874 38.2388C74.6104 38.2388 74.373 38.2798 74.1621 38.3618C73.9512 38.4438 73.7827 38.5625 73.6567 38.7178C73.5337 38.8701 73.4722 39.0576 73.4722 39.2803V39.2847C73.4722 39.5366 73.5659 39.749 73.7534 39.9219C73.9409 40.0947 74.25 40.228 74.6807 40.3218L75.3838 40.48C75.8262 40.5767 76.1821 40.7026 76.4517 40.8579C76.7212 41.0132 76.9175 41.2036 77.0405 41.4292C77.1665 41.6519 77.2295 41.9155 77.2295 42.2202V42.2246C77.2295 42.6201 77.1328 42.9614 76.9395 43.2485C76.7461 43.5356 76.4736 43.7583 76.1221 43.9165C75.7705 44.0718 75.3589 44.1494 74.8872 44.1494ZM80.3892 44.0835C79.9468 44.0835 79.563 43.9824 79.2378 43.7803C78.9126 43.5781 78.6606 43.2925 78.4819 42.9233C78.3032 42.5542 78.2139 42.1191 78.2139 41.6182V41.6094C78.2139 41.1172 78.3018 40.6895 78.4775 40.3262C78.6562 39.9629 78.9082 39.6816 79.2334 39.4824C79.5586 39.2803 79.9424 39.1792 80.3848 39.1792C80.7686 39.1792 81.0996 39.2466 81.3779 39.3813C81.6562 39.5161 81.8789 39.6978 82.0459 39.9263C82.2129 40.1519 82.3198 40.4053 82.3667 40.6865L82.3711 40.7129H81.6108L81.6064 40.6997C81.5479 40.4653 81.4146 40.2661 81.2065 40.1021C80.9985 39.938 80.7246 39.856 80.3848 39.856C80.1006 39.856 79.8545 39.9277 79.6465 40.0713C79.4385 40.2148 79.2773 40.4185 79.1631 40.6821C79.0518 40.9429 78.9961 41.252 78.9961 41.6094V41.6182C78.9961 41.9814 79.0532 42.2979 79.1675 42.5674C79.2817 42.834 79.4429 43.0405 79.6509 43.187C79.8589 43.3335 80.1035 43.4067 80.3848 43.4067C80.7041 43.4067 80.9648 43.3379 81.167 43.2002C81.3691 43.0625 81.5142 42.8618 81.6021 42.5981L81.6108 42.5718L82.3667 42.5674L82.3579 42.6157C82.2935 42.8999 82.1792 43.1533 82.0151 43.376C81.8511 43.5957 81.6343 43.7686 81.3647 43.8945C81.0952 44.0205 80.77 44.0835 80.3892 44.0835ZM85.4341 44.0835C84.9858 44.0835 84.5977 43.9854 84.2695 43.7891C83.9443 43.5898 83.6924 43.3071 83.5137 42.9409C83.3379 42.5747 83.25 42.1396 83.25 41.6357V41.627C83.25 41.1201 83.3379 40.6836 83.5137 40.3174C83.6924 39.9512 83.9443 39.6699 84.2695 39.4736C84.5977 39.2773 84.9858 39.1792 85.4341 39.1792C85.8853 39.1792 86.2734 39.2773 86.5986 39.4736C86.9238 39.6699 87.1743 39.9512 87.3501 40.3174C87.5288 40.6836 87.6182 41.1201 87.6182 41.627V41.6357C87.6182 42.1396 87.5288 42.5747 87.3501 42.9409C87.1743 43.3071 86.9238 43.5898 86.5986 43.7891C86.2734 43.9854 85.8853 44.0835 85.4341 44.0835ZM85.4341 43.4067C85.7329 43.4067 85.9863 43.3364 86.1943 43.1958C86.4023 43.0552 86.5605 42.853 86.6689 42.5894C86.7803 42.3257 86.8359 42.0078 86.8359 41.6357V41.627C86.8359 41.252 86.7803 40.9326 86.6689 40.6689C86.5605 40.4053 86.4023 40.2046 86.1943 40.0669C85.9863 39.9263 85.7329 39.856 85.4341 39.856C85.1353 39.856 84.8818 39.9263 84.6738 40.0669C84.4658 40.2046 84.3062 40.4053 84.1948 40.6689C84.0864 40.9326 84.0322 41.252 84.0322 41.627V41.6357C84.0322 42.0078 84.0864 42.3257 84.1948 42.5894C84.3062 42.853 84.4658 43.0552 84.6738 43.1958C84.8818 43.3364 85.1353 43.4067 85.4341 43.4067ZM88.8047 44V39.2627H89.5693V39.9658H89.6396C89.7305 39.7168 89.8843 39.5234 90.1011 39.3857C90.3179 39.248 90.5859 39.1792 90.9053 39.1792C90.9785 39.1792 91.0503 39.1836 91.1206 39.1924C91.1938 39.1982 91.2495 39.2041 91.2876 39.21V39.9526C91.2085 39.938 91.1309 39.9277 91.0547 39.9219C90.9814 39.9131 90.9023 39.9087 90.8174 39.9087C90.5742 39.9087 90.3589 39.957 90.1714 40.0537C89.9839 40.1504 89.8359 40.2852 89.7275 40.458C89.6221 40.6309 89.5693 40.833 89.5693 41.0645V44H88.8047ZM92.25 44V39.2627H93.0146V44H92.25ZM92.6367 38.3486C92.4932 38.3486 92.3687 38.2974 92.2632 38.1948C92.1606 38.0894 92.1094 37.9648 92.1094 37.8213C92.1094 37.6748 92.1606 37.5503 92.2632 37.4478C92.3687 37.3452 92.4932 37.2939 92.6367 37.2939C92.7832 37.2939 92.9077 37.3452 93.0103 37.4478C93.1128 37.5503 93.1641 37.6748 93.1641 37.8213C93.1641 37.9648 93.1128 38.0894 93.0103 38.1948C92.9077 38.2974 92.7832 38.3486 92.6367 38.3486ZM94.4561 44V39.2627H95.2207V39.9746H95.291C95.4111 39.7227 95.584 39.5278 95.8096 39.3901C96.0352 39.2495 96.3223 39.1792 96.6709 39.1792C97.2041 39.1792 97.6128 39.3315 97.897 39.6362C98.1841 39.938 98.3276 40.3701 98.3276 40.9326V44H97.563V41.1172C97.563 40.6895 97.4722 40.373 97.2905 40.168C97.1118 39.96 96.8335 39.856 96.4556 39.856C96.2036 39.856 95.9854 39.9102 95.8008 40.0186C95.6162 40.127 95.4727 40.2808 95.3701 40.48C95.2705 40.6792 95.2207 40.918 95.2207 41.1963V44H94.4561ZM101.663 45.6699C101.282 45.6699 100.95 45.6157 100.666 45.5073C100.381 45.4019 100.154 45.251 99.9844 45.0547C99.8174 44.8613 99.7134 44.6357 99.6724 44.3779L99.6812 44.3735H100.472L100.477 44.3779C100.518 44.5566 100.641 44.7031 100.846 44.8174C101.051 44.9346 101.323 44.9932 101.663 44.9932C102.088 44.9932 102.419 44.8965 102.656 44.7031C102.896 44.5127 103.017 44.2432 103.017 43.8945V42.9365H102.946C102.847 43.1094 102.722 43.2573 102.573 43.3804C102.423 43.5034 102.255 43.5972 102.067 43.6616C101.88 43.7231 101.678 43.7539 101.461 43.7539C101.054 43.7539 100.701 43.6572 100.402 43.4639C100.106 43.2676 99.8774 42.998 99.7163 42.6553C99.5552 42.3125 99.4746 41.9199 99.4746 41.4775V41.4688C99.4746 41.0264 99.5552 40.6338 99.7163 40.291C99.8804 39.9453 100.112 39.6743 100.411 39.478C100.709 39.2788 101.065 39.1792 101.479 39.1792C101.701 39.1792 101.906 39.2144 102.094 39.2847C102.281 39.355 102.447 39.4546 102.59 39.5835C102.737 39.7124 102.858 39.8662 102.955 40.0449H103.008V39.2627H103.772V43.9341C103.772 44.2856 103.686 44.5918 103.513 44.8525C103.343 45.1133 103.1 45.314 102.784 45.4546C102.467 45.5981 102.094 45.6699 101.663 45.6699ZM101.628 43.0771C101.921 43.0771 102.171 43.0098 102.379 42.875C102.59 42.7373 102.751 42.5483 102.863 42.3081C102.977 42.0679 103.034 41.791 103.034 41.4775V41.4688C103.034 41.1553 102.977 40.877 102.863 40.6338C102.751 40.3906 102.59 40.2002 102.379 40.0625C102.171 39.9248 101.921 39.856 101.628 39.856C101.335 39.856 101.086 39.9248 100.881 40.0625C100.679 40.2002 100.523 40.3906 100.415 40.6338C100.31 40.877 100.257 41.1553 100.257 41.4688V41.4775C100.257 41.791 100.31 42.0679 100.415 42.3081C100.523 42.5483 100.679 42.7373 100.881 42.875C101.086 43.0098 101.335 43.0771 101.628 43.0771Z" fill="black"/>
<path d="M17 40H52.5" stroke="#0F3758" stroke-width="2.5"/>
<path fill-rule="evenodd" clip-rule="evenodd" d="M34.3455 6.09193C39.7621 6.09691 44.5592 9.19898 47.8926 13.8989C51.2341 18.6108 53.2647 25.0974 53.301 32.5319C53.3019 32.7097 53.3003 32.8871 53.2987 33.0642L47.2988 33.0935C47.3009 32.9166 47.3019 32.7392 47.3011 32.5612C47.2698 26.1609 45.5192 20.9237 42.9983 17.3691C40.4689 13.8028 37.32 12.0948 34.3406 12.092C31.4155 12.0893 28.4344 13.7748 26.0635 17.3532C23.6914 20.9335 22.0979 26.2222 22.1294 32.6685C22.1303 32.8517 22.1333 33.0343 22.137 33.2163L16.137 33.2456C16.1338 33.0634 16.1304 32.8808 16.1295 32.6978C16.0934 25.3089 17.9094 18.7979 21.0619 14.0397C24.2155 9.27983 28.8748 6.08707 34.3455 6.09193Z" fill="#0F3758" fill-opacity="0.9"/>
<path d="M8 0.150391H144C148.335 0.150391 151.85 3.66456 151.85 8V41C151.85 45.3354 148.335 48.8496 144 48.8496H8C3.66456 48.8496 0.150391 45.3354 0.150391 41V8C0.150391 3.66456 3.66456 0.150391 8 0.150391Z" stroke="#0F3758" stroke-width="0.3"/>
</svg>
