<svg width="152" height="49" viewBox="0 0 152 49" fill="none" xmlns="http://www.w3.org/2000/svg">
<path d="M73.3672 18V6.72656H75.7266V11.3047H80.8047V6.72656H83.1641V18H80.8047V13.25H75.7266V18H73.3672ZM85.8984 18V6.72656H90.3359C91.4557 6.72656 92.4089 6.94531 93.1953 7.38281C93.9818 7.8151 94.5833 8.44531 95 9.27344C95.4167 10.1016 95.625 11.1042 95.625 12.2812V12.2969C95.625 13.5104 95.4167 14.5417 95 15.3906C94.5885 16.2396 93.9896 16.888 93.2031 17.3359C92.4167 17.7786 91.4609 18 90.3359 18H85.8984ZM88.2578 16.0547H89.9609C90.6589 16.0547 91.25 15.9115 91.7344 15.625C92.2188 15.3385 92.5859 14.9193 92.8359 14.3672C93.0911 13.8099 93.2188 13.1328 93.2188 12.3359V12.3203C93.2188 11.5443 93.0885 10.8854 92.8281 10.3438C92.5729 9.79688 92.2005 9.38281 91.7109 9.10156C91.2266 8.8151 90.6432 8.67188 89.9609 8.67188H88.2578V16.0547ZM96.7188 18L100.844 11.4609L100.297 13.375V12.2969L96.7344 6.72656H99.5156L101.906 10.7891H103L101.469 11.7031L104.375 6.72656H107.016L103.32 12.3359V13.4219L102.766 11.5078L106.961 18H104.273L101.805 14.0469H100.711L102.281 13.1641L99.2656 18H96.7188Z" fill="black"/>
<path opacity="0.95" d="M72.8086 31V24.6587H73.5996V27.4009H77.0801V24.6587H77.8711V31H77.0801V28.1128H73.5996V31H72.8086ZM79.7959 32.6611C79.7461 32.6611 79.6904 32.6582 79.6289 32.6523C79.5674 32.6494 79.5103 32.6436 79.4575 32.6348V32.0063C79.5044 32.0151 79.5557 32.021 79.6113 32.0239C79.667 32.0269 79.7212 32.0283 79.7739 32.0283C79.9907 32.0283 80.168 31.9727 80.3057 31.8613C80.4463 31.75 80.5591 31.5581 80.644 31.2856L80.7319 31.0044L78.9785 26.2627H79.7959L81.2549 30.6396L80.9517 30.1606H81.312L81.0088 30.6396L82.4634 26.2627H83.2676L81.4175 31.29C81.2886 31.6445 81.1523 31.9214 81.0088 32.1206C80.8652 32.3198 80.6968 32.459 80.5034 32.5381C80.313 32.6201 80.0771 32.6611 79.7959 32.6611ZM84.2783 32.582V26.2627H85.043V27.0186H85.1133C85.21 26.8428 85.3315 26.6934 85.478 26.5703C85.6245 26.4443 85.7915 26.3477 85.979 26.2803C86.1665 26.2129 86.3701 26.1792 86.5898 26.1792C86.9912 26.1792 87.3398 26.2817 87.6357 26.4868C87.9346 26.689 88.166 26.9731 88.3301 27.3394C88.4941 27.7056 88.5762 28.1348 88.5762 28.627V28.6357C88.5762 29.1309 88.4941 29.5615 88.3301 29.9277C88.166 30.2939 87.9346 30.5781 87.6357 30.7803C87.3398 30.9824 86.9912 31.0835 86.5898 31.0835C86.373 31.0835 86.168 31.0498 85.9746 30.9824C85.7842 30.9121 85.6143 30.8154 85.4648 30.6924C85.3184 30.5693 85.2012 30.4229 85.1133 30.2529H85.043V32.582H84.2783ZM86.4141 30.4067C86.7041 30.4067 86.9517 30.3364 87.1567 30.1958C87.3618 30.0522 87.5186 29.8486 87.627 29.585C87.7383 29.3184 87.7939 29.002 87.7939 28.6357V28.627C87.7939 28.2578 87.7383 27.9414 87.627 27.6777C87.5186 27.4141 87.3618 27.2119 87.1567 27.0713C86.9517 26.9277 86.7041 26.856 86.4141 26.856C86.127 26.856 85.8794 26.9277 85.6714 27.0713C85.4634 27.2148 85.3037 27.4185 85.1924 27.6821C85.0811 27.9458 85.0254 28.2607 85.0254 28.627V28.6357C85.0254 28.999 85.0811 29.314 85.1924 29.5806C85.3037 29.8442 85.4634 30.0479 85.6714 30.1914C85.8794 30.335 86.127 30.4067 86.4141 30.4067ZM91.7183 31.0835C91.27 31.0835 90.8818 30.9854 90.5537 30.7891C90.2285 30.5898 89.9766 30.3071 89.7979 29.9409C89.6221 29.5747 89.5342 29.1396 89.5342 28.6357V28.627C89.5342 28.1201 89.6221 27.6836 89.7979 27.3174C89.9766 26.9512 90.2285 26.6699 90.5537 26.4736C90.8818 26.2773 91.27 26.1792 91.7183 26.1792C92.1694 26.1792 92.5576 26.2773 92.8828 26.4736C93.208 26.6699 93.4585 26.9512 93.6343 27.3174C93.813 27.6836 93.9023 28.1201 93.9023 28.627V28.6357C93.9023 29.1396 93.813 29.5747 93.6343 29.9409C93.4585 30.3071 93.208 30.5898 92.8828 30.7891C92.5576 30.9854 92.1694 31.0835 91.7183 31.0835ZM91.7183 30.4067C92.0171 30.4067 92.2705 30.3364 92.4785 30.1958C92.6865 30.0552 92.8447 29.853 92.9531 29.5894C93.0645 29.3257 93.1201 29.0078 93.1201 28.6357V28.627C93.1201 28.252 93.0645 27.9326 92.9531 27.6689C92.8447 27.4053 92.6865 27.2046 92.4785 27.0669C92.2705 26.9263 92.0171 26.856 91.7183 26.856C91.4194 26.856 91.166 26.9263 90.958 27.0669C90.75 27.2046 90.5903 27.4053 90.479 27.6689C90.3706 27.9326 90.3164 28.252 90.3164 28.627V28.6357C90.3164 29.0078 90.3706 29.3257 90.479 29.5894C90.5903 29.853 90.75 30.0552 90.958 30.1958C91.166 30.3364 91.4194 30.4067 91.7183 30.4067ZM96.8379 31.0835C96.4395 31.0835 96.0908 30.9824 95.792 30.7803C95.4932 30.5781 95.2617 30.2939 95.0977 29.9277C94.9336 29.5586 94.8516 29.1279 94.8516 28.6357V28.627C94.8516 28.1318 94.9336 27.7012 95.0977 27.335C95.2617 26.9688 95.4917 26.6846 95.7876 26.4824C96.0864 26.2803 96.4365 26.1792 96.8379 26.1792C97.0547 26.1792 97.2583 26.2144 97.4487 26.2847C97.6421 26.3521 97.8135 26.4473 97.9629 26.5703C98.1123 26.6934 98.2295 26.8398 98.3145 27.0098H98.3848V24.3818H99.1494V31H98.3848V30.2441H98.3145C98.2178 30.4199 98.0962 30.5708 97.9497 30.6968C97.8032 30.8198 97.6362 30.915 97.4487 30.9824C97.2612 31.0498 97.0576 31.0835 96.8379 31.0835ZM97.0137 30.4067C97.3008 30.4067 97.5483 30.335 97.7563 30.1914C97.9644 30.0479 98.124 29.8442 98.2354 29.5806C98.3467 29.314 98.4023 28.999 98.4023 28.6357V28.627C98.4023 28.2607 98.3467 27.9458 98.2354 27.6821C98.124 27.4185 97.9644 27.2148 97.7563 27.0713C97.5483 26.9277 97.3008 26.856 97.0137 26.856C96.7266 26.856 96.479 26.9277 96.271 27.0713C96.0659 27.2119 95.9077 27.4141 95.7964 27.6777C95.688 27.9414 95.6338 28.2578 95.6338 28.627V28.6357C95.6338 29.002 95.688 29.3184 95.7964 29.585C95.9077 29.8486 96.0659 30.0522 96.271 30.1958C96.479 30.3364 96.7266 30.4067 97.0137 30.4067ZM102.564 31.0835C102.116 31.0835 101.728 30.9854 101.399 30.7891C101.074 30.5898 100.822 30.3071 100.644 29.9409C100.468 29.5747 100.38 29.1396 100.38 28.6357V28.627C100.38 28.1201 100.468 27.6836 100.644 27.3174C100.822 26.9512 101.074 26.6699 101.399 26.4736C101.728 26.2773 102.116 26.1792 102.564 26.1792C103.015 26.1792 103.403 26.2773 103.729 26.4736C104.054 26.6699 104.304 26.9512 104.48 27.3174C104.659 27.6836 104.748 28.1201 104.748 28.627V28.6357C104.748 29.1396 104.659 29.5747 104.48 29.9409C104.304 30.3071 104.054 30.5898 103.729 30.7891C103.403 30.9854 103.015 31.0835 102.564 31.0835ZM102.564 30.4067C102.863 30.4067 103.116 30.3364 103.324 30.1958C103.532 30.0552 103.69 29.853 103.799 29.5894C103.91 29.3257 103.966 29.0078 103.966 28.6357V28.627C103.966 28.252 103.91 27.9326 103.799 27.6689C103.69 27.4053 103.532 27.2046 103.324 27.0669C103.116 26.9263 102.863 26.856 102.564 26.856C102.265 26.856 102.012 26.9263 101.804 27.0669C101.596 27.2046 101.436 27.4053 101.325 27.6689C101.216 27.9326 101.162 28.252 101.162 28.627V28.6357C101.162 29.0078 101.216 29.3257 101.325 29.5894C101.436 29.853 101.596 30.0552 101.804 30.1958C102.012 30.3364 102.265 30.4067 102.564 30.4067ZM105.935 31V26.2627H106.699V26.9834H106.77C106.875 26.7285 107.036 26.5308 107.253 26.3901C107.473 26.2495 107.738 26.1792 108.048 26.1792C108.262 26.1792 108.454 26.2144 108.624 26.2847C108.794 26.355 108.94 26.4531 109.063 26.5791C109.187 26.7021 109.285 26.8457 109.358 27.0098H109.428C109.513 26.8428 109.627 26.6978 109.771 26.5747C109.915 26.4487 110.08 26.3521 110.268 26.2847C110.458 26.2144 110.662 26.1792 110.878 26.1792C111.201 26.1792 111.473 26.2393 111.696 26.3594C111.921 26.4795 112.093 26.6553 112.21 26.8867C112.327 27.1152 112.386 27.395 112.386 27.7261V31H111.621V27.9019C111.621 27.6675 111.584 27.4741 111.511 27.3218C111.441 27.1665 111.333 27.0508 111.186 26.9746C111.04 26.8955 110.855 26.856 110.632 26.856C110.413 26.856 110.221 26.9058 110.057 27.0054C109.893 27.105 109.765 27.2383 109.674 27.4053C109.583 27.5693 109.538 27.7524 109.538 27.9546V31H108.773V27.7832C108.773 27.5957 108.732 27.4331 108.65 27.2954C108.571 27.1548 108.457 27.0464 108.308 26.9702C108.161 26.894 107.988 26.856 107.789 26.856C107.584 26.856 107.398 26.9102 107.231 27.0186C107.067 27.127 106.937 27.2734 106.84 27.458C106.746 27.6396 106.699 27.8418 106.699 28.0645V31H105.935ZM115.699 31.0835C115.248 31.0835 114.86 30.9839 114.535 30.7847C114.212 30.5854 113.963 30.3042 113.788 29.9409C113.615 29.5747 113.528 29.144 113.528 28.6489V28.6445C113.528 28.1553 113.615 27.7261 113.788 27.3569C113.963 26.9878 114.211 26.6992 114.53 26.4912C114.85 26.2832 115.223 26.1792 115.651 26.1792C116.082 26.1792 116.451 26.2788 116.758 26.478C117.069 26.6772 117.306 26.9556 117.47 27.313C117.637 27.6675 117.721 28.0806 117.721 28.5522V28.8511H113.924V28.2402H117.33L116.952 28.7983V28.4951C116.952 28.123 116.896 27.8169 116.785 27.5767C116.673 27.3364 116.52 27.1577 116.323 27.0405C116.127 26.9204 115.901 26.8604 115.646 26.8604C115.392 26.8604 115.163 26.9233 114.961 27.0493C114.762 27.1724 114.604 27.3555 114.486 27.5986C114.369 27.8418 114.311 28.1406 114.311 28.4951V28.7983C114.311 29.1353 114.368 29.4238 114.482 29.6641C114.596 29.9014 114.759 30.0845 114.97 30.2134C115.181 30.3394 115.43 30.4023 115.717 30.4023C115.931 30.4023 116.117 30.373 116.275 30.3145C116.433 30.2559 116.563 30.1812 116.666 30.0903C116.769 29.9995 116.84 29.9072 116.881 29.8135L116.899 29.7739H117.664L117.655 29.8091C117.614 29.9702 117.541 30.127 117.435 30.2793C117.333 30.4287 117.199 30.5649 117.035 30.688C116.871 30.8081 116.676 30.9048 116.451 30.978C116.228 31.0483 115.978 31.0835 115.699 31.0835ZM72.8086 45V38.6587H76.7373V39.3706H73.5996V41.4053H76.5747V42.1084H73.5996V44.2881H76.7373V45H72.8086ZM77.6953 45L79.3169 42.6313L77.6777 40.2627H78.5786L79.7036 42.0249H79.7739L80.8857 40.2627H81.7427L80.1343 42.6006L81.7646 45H80.8682L79.7476 43.2114H79.6772L78.5522 45H77.6953ZM84.5112 45.0835C84.0688 45.0835 83.6851 44.9824 83.3599 44.7803C83.0347 44.5781 82.7827 44.2925 82.604 43.9233C82.4253 43.5542 82.3359 43.1191 82.3359 42.6182V42.6094C82.3359 42.1172 82.4238 41.6895 82.5996 41.3262C82.7783 40.9629 83.0303 40.6816 83.3555 40.4824C83.6807 40.2803 84.0645 40.1792 84.5068 40.1792C84.8906 40.1792 85.2217 40.2466 85.5 40.3813C85.7783 40.5161 86.001 40.6978 86.168 40.9263C86.335 41.1519 86.4419 41.4053 86.4888 41.6865L86.4932 41.7129H85.7329L85.7285 41.6997C85.6699 41.4653 85.5366 41.2661 85.3286 41.1021C85.1206 40.938 84.8467 40.856 84.5068 40.856C84.2227 40.856 83.9766 40.9277 83.7686 41.0713C83.5605 41.2148 83.3994 41.4185 83.2852 41.6821C83.1738 41.9429 83.1182 42.252 83.1182 42.6094V42.6182C83.1182 42.9814 83.1753 43.2979 83.2896 43.5674C83.4038 43.834 83.5649 44.0405 83.7729 44.187C83.981 44.3335 84.2256 44.4067 84.5068 44.4067C84.8262 44.4067 85.0869 44.3379 85.2891 44.2002C85.4912 44.0625 85.6362 43.8618 85.7241 43.5981L85.7329 43.5718L86.4888 43.5674L86.48 43.6157C86.4155 43.8999 86.3013 44.1533 86.1372 44.376C85.9731 44.5957 85.7563 44.7686 85.4868 44.8945C85.2173 45.0205 84.8921 45.0835 84.5112 45.0835ZM87.6533 45V38.3818H88.418V40.9746H88.4883C88.6084 40.7227 88.7812 40.5278 89.0068 40.3901C89.2324 40.2495 89.5195 40.1792 89.8682 40.1792C90.2227 40.1792 90.5229 40.248 90.769 40.3857C91.0151 40.5205 91.2026 40.7183 91.3315 40.979C91.4604 41.2397 91.5249 41.5576 91.5249 41.9326V45H90.7603V42.1172C90.7603 41.6895 90.6694 41.373 90.4878 41.168C90.3091 40.96 90.0308 40.856 89.6528 40.856C89.4009 40.856 89.1826 40.9102 88.998 41.0186C88.8135 41.127 88.6699 41.2808 88.5674 41.48C88.4678 41.6792 88.418 41.918 88.418 42.1963V45H87.6533ZM94.21 45.0835C93.9111 45.0835 93.6416 45.0264 93.4014 44.9121C93.1641 44.7979 92.9751 44.6353 92.8345 44.4243C92.6968 44.2134 92.6279 43.9644 92.6279 43.6772V43.6685C92.6279 43.3872 92.6953 43.147 92.8301 42.9478C92.9648 42.7456 93.1611 42.5874 93.4189 42.4731C93.6768 42.3589 93.9888 42.2915 94.355 42.271L96.0952 42.1655V42.7764L94.4473 42.8818C94.0869 42.9023 93.8232 42.9771 93.6562 43.106C93.4922 43.2349 93.4102 43.4165 93.4102 43.6509V43.6597C93.4102 43.8999 93.501 44.0874 93.6826 44.2222C93.8643 44.354 94.0928 44.4199 94.3682 44.4199C94.6289 44.4199 94.8604 44.3687 95.0625 44.2661C95.2646 44.1606 95.4229 44.0186 95.5371 43.8398C95.6543 43.6611 95.7129 43.459 95.7129 43.2334V41.7568C95.7129 41.4639 95.6235 41.2412 95.4448 41.0889C95.269 40.9336 95.0039 40.856 94.6494 40.856C94.3652 40.856 94.1323 40.9072 93.9507 41.0098C93.769 41.1094 93.6475 41.2515 93.5859 41.436L93.5815 41.4492H92.8169L92.8213 41.4229C92.8623 41.1738 92.9648 40.957 93.1289 40.7725C93.2959 40.585 93.5112 40.4399 93.7749 40.3374C94.0386 40.2319 94.3389 40.1792 94.6758 40.1792C95.0625 40.1792 95.3892 40.2422 95.6558 40.3682C95.9253 40.4941 96.1289 40.6758 96.2666 40.9131C96.4072 41.1475 96.4775 41.4287 96.4775 41.7568V45H95.7129V44.3013H95.6426C95.543 44.4683 95.4214 44.6104 95.2778 44.7275C95.1372 44.8447 94.9775 44.9341 94.7988 44.9956C94.6201 45.0542 94.4238 45.0835 94.21 45.0835ZM97.875 45V40.2627H98.6396V40.9746H98.71C98.8301 40.7227 99.0029 40.5278 99.2285 40.3901C99.4541 40.2495 99.7412 40.1792 100.09 40.1792C100.623 40.1792 101.032 40.3315 101.316 40.6362C101.603 40.938 101.747 41.3701 101.747 41.9326V45H100.982V42.1172C100.982 41.6895 100.891 41.373 100.709 41.168C100.531 40.96 100.252 40.856 99.8745 40.856C99.6226 40.856 99.4043 40.9102 99.2197 41.0186C99.0352 41.127 98.8916 41.2808 98.7891 41.48C98.6895 41.6792 98.6396 41.918 98.6396 42.1963V45H97.875ZM105.082 46.6699C104.701 46.6699 104.369 46.6157 104.084 46.5073C103.8 46.4019 103.573 46.251 103.403 46.0547C103.236 45.8613 103.132 45.6357 103.091 45.3779L103.1 45.3735H103.891L103.896 45.3779C103.937 45.5566 104.06 45.7031 104.265 45.8174C104.47 45.9346 104.742 45.9932 105.082 45.9932C105.507 45.9932 105.838 45.8965 106.075 45.7031C106.315 45.5127 106.436 45.2432 106.436 44.8945V43.9365H106.365C106.266 44.1094 106.141 44.2573 105.992 44.3804C105.842 44.5034 105.674 44.5972 105.486 44.6616C105.299 44.7231 105.097 44.7539 104.88 44.7539C104.473 44.7539 104.12 44.6572 103.821 44.4639C103.525 44.2676 103.296 43.998 103.135 43.6553C102.974 43.3125 102.894 42.9199 102.894 42.4775V42.4688C102.894 42.0264 102.974 41.6338 103.135 41.291C103.299 40.9453 103.531 40.6743 103.83 40.478C104.128 40.2788 104.484 40.1792 104.897 40.1792C105.12 40.1792 105.325 40.2144 105.513 40.2847C105.7 40.355 105.866 40.4546 106.009 40.5835C106.156 40.7124 106.277 40.8662 106.374 41.0449H106.427V40.2627H107.191V44.9341C107.191 45.2856 107.105 45.5918 106.932 45.8525C106.762 46.1133 106.519 46.314 106.203 46.4546C105.886 46.5981 105.513 46.6699 105.082 46.6699ZM105.047 44.0771C105.34 44.0771 105.59 44.0098 105.798 43.875C106.009 43.7373 106.17 43.5483 106.282 43.3081C106.396 43.0679 106.453 42.791 106.453 42.4775V42.4688C106.453 42.1553 106.396 41.877 106.282 41.6338C106.17 41.3906 106.009 41.2002 105.798 41.0625C105.59 40.9248 105.34 40.856 105.047 40.856C104.754 40.856 104.505 40.9248 104.3 41.0625C104.098 41.2002 103.942 41.3906 103.834 41.6338C103.729 41.877 103.676 42.1553 103.676 42.4688V42.4775C103.676 42.791 103.729 43.0679 103.834 43.3081C103.942 43.5483 104.098 43.7373 104.3 43.875C104.505 44.0098 104.754 44.0771 105.047 44.0771ZM110.549 45.0835C110.098 45.0835 109.709 44.9839 109.384 44.7847C109.062 44.5854 108.813 44.3042 108.637 43.9409C108.464 43.5747 108.378 43.144 108.378 42.6489V42.6445C108.378 42.1553 108.464 41.7261 108.637 41.3569C108.813 40.9878 109.061 40.6992 109.38 40.4912C109.699 40.2832 110.073 40.1792 110.5 40.1792C110.931 40.1792 111.3 40.2788 111.608 40.478C111.918 40.6772 112.156 40.9556 112.32 41.313C112.487 41.6675 112.57 42.0806 112.57 42.5522V42.8511H108.773V42.2402H112.179L111.801 42.7983V42.4951C111.801 42.123 111.746 41.8169 111.634 41.5767C111.523 41.3364 111.369 41.1577 111.173 41.0405C110.977 40.9204 110.751 40.8604 110.496 40.8604C110.241 40.8604 110.013 40.9233 109.811 41.0493C109.611 41.1724 109.453 41.3555 109.336 41.5986C109.219 41.8418 109.16 42.1406 109.16 42.4951V42.7983C109.16 43.1353 109.217 43.4238 109.332 43.6641C109.446 43.9014 109.608 44.0845 109.819 44.2134C110.03 44.3394 110.279 44.4023 110.566 44.4023C110.78 44.4023 110.966 44.373 111.125 44.3145C111.283 44.2559 111.413 44.1812 111.516 44.0903C111.618 43.9995 111.69 43.9072 111.731 43.8135L111.749 43.7739H112.513L112.504 43.8091C112.463 43.9702 112.39 44.127 112.285 44.2793C112.182 44.4287 112.049 44.5649 111.885 44.688C111.721 44.8081 111.526 44.9048 111.3 44.978C111.078 45.0483 110.827 45.0835 110.549 45.0835Z" fill="black"/>
<path d="M17 40H52.5" stroke="#0F3758" stroke-width="2.5"/>
<path fill-rule="evenodd" clip-rule="evenodd" d="M34.3455 6.09168C39.7621 6.09667 44.5592 9.19874 47.8926 13.8987C51.2341 18.6105 53.2647 25.0972 53.301 32.5317C53.3019 32.7094 53.3003 32.8869 53.2987 33.0639L47.2988 33.0932C47.3009 32.9163 47.3019 32.7389 47.3011 32.561C47.2698 26.1607 45.5192 20.9234 42.9983 17.3689C40.4689 13.8025 37.32 12.0946 34.3406 12.0918C31.4155 12.0891 28.4344 13.7746 26.0635 17.353C23.6914 20.9333 22.0979 26.222 22.1294 32.6683C22.1303 32.8515 22.1333 33.0341 22.137 33.2161L16.137 33.2454C16.1338 33.0631 16.1304 32.8805 16.1295 32.6976C16.0934 25.3086 17.9094 18.7976 21.0619 14.0395C24.2155 9.27959 28.8748 6.08682 34.3455 6.09168Z" fill="#0F3758" fill-opacity="0.9"/>
<path d="M8 0.150391H144C148.335 0.150391 151.85 3.66456 151.85 8V41C151.85 45.3354 148.335 48.8496 144 48.8496H8C3.66456 48.8496 0.150391 45.3354 0.150391 41V8C0.150391 3.66456 3.66456 0.150391 8 0.150391Z" stroke="#0F3758" stroke-width="0.3"/>
</svg>
