<svg width="288" height="92" viewBox="0 0 288 92" fill="none" xmlns="http://www.w3.org/2000/svg">
<path opacity="0.66" d="M1.57324 78V65.3174H9.62402V67.0225H3.54199V70.7227H9.29883V72.3574H3.54199V76.2949H9.62402V78H1.57324ZM15.3984 78.1846C14.6836 78.1846 14.083 78.0469 13.5967 77.7715C13.1104 77.4902 12.7441 77.0859 12.498 76.5586C12.252 76.0254 12.1289 75.3838 12.1289 74.6338V68.4639H14.0361V74.1943C14.0361 74.9795 14.1914 75.5684 14.502 75.9609C14.8125 76.3477 15.3193 76.541 16.0225 76.541C16.3975 76.541 16.7285 76.4854 17.0156 76.374C17.3086 76.2568 17.5547 76.0898 17.7539 75.873C17.9531 75.6562 18.1025 75.3955 18.2021 75.0908C18.3018 74.7861 18.3516 74.4434 18.3516 74.0625V68.4639H20.2588V78H18.3516V76.5586H18.2021C18.0557 76.8984 17.8506 77.1914 17.5869 77.4375C17.3232 77.6777 17.0068 77.8623 16.6377 77.9912C16.2744 78.1201 15.8613 78.1846 15.3984 78.1846ZM22.9746 78V68.4639H24.8818V69.9141H25.0225C25.1924 69.4043 25.4912 69.0088 25.9189 68.7275C26.3467 68.4463 26.877 68.3057 27.5098 68.3057C27.6621 68.3057 27.8145 68.3145 27.9668 68.332C28.1191 68.3438 28.2422 68.3613 28.3359 68.3848V70.1514C28.166 70.1104 27.999 70.0811 27.835 70.0635C27.6709 70.0459 27.498 70.0371 27.3164 70.0371C26.8301 70.0371 26.4053 70.1309 26.042 70.3184C25.6787 70.5059 25.3945 70.7695 25.1895 71.1094C24.9844 71.4434 24.8818 71.8418 24.8818 72.3047V78H22.9746ZM33.917 78.1846C32.9912 78.1846 32.1914 77.9854 31.5176 77.5869C30.8438 77.1885 30.3223 76.6201 29.9531 75.8818C29.5898 75.1436 29.4082 74.2617 29.4082 73.2363V73.2188C29.4082 72.1992 29.5898 71.3203 29.9531 70.582C30.3223 69.8438 30.8438 69.2754 31.5176 68.877C32.1914 68.4785 32.9912 68.2793 33.917 68.2793C34.8486 68.2793 35.6514 68.4785 36.3252 68.877C36.999 69.2754 37.5176 69.8438 37.8809 70.582C38.2441 71.3203 38.4258 72.1992 38.4258 73.2188V73.2363C38.4258 74.2617 38.2441 75.1436 37.8809 75.8818C37.5176 76.6201 36.999 77.1885 36.3252 77.5869C35.6572 77.9854 34.8545 78.1846 33.917 78.1846ZM33.917 76.585C34.4619 76.585 34.9248 76.4531 35.3057 76.1895C35.6865 75.9258 35.9766 75.5449 36.1758 75.0469C36.375 74.543 36.4746 73.9424 36.4746 73.2451V73.2275C36.4746 72.5186 36.3721 71.915 36.167 71.417C35.9678 70.9189 35.6777 70.5381 35.2969 70.2744C34.9219 70.0107 34.4619 69.8789 33.917 69.8789C33.3779 69.8789 32.918 70.0107 32.5371 70.2744C32.1562 70.5381 31.8633 70.9189 31.6582 71.417C31.459 71.915 31.3594 72.5186 31.3594 73.2275V73.2451C31.3594 73.9482 31.459 74.5488 31.6582 75.0469C31.8633 75.5449 32.1562 75.9258 32.5371 76.1895C32.918 76.4531 33.3779 76.585 33.917 76.585ZM40.6582 81.1729V68.4639H42.5654V69.9756H42.7061C42.8936 69.624 43.1309 69.3252 43.418 69.0791C43.7051 68.8271 44.0361 68.6367 44.4111 68.5078C44.7861 68.373 45.1963 68.3057 45.6416 68.3057C46.4443 68.3057 47.1416 68.5078 47.7334 68.9121C48.3252 69.3164 48.7822 69.8877 49.1045 70.626C49.4268 71.3584 49.5879 72.2256 49.5879 73.2275V73.2451C49.5879 74.2471 49.4268 75.1172 49.1045 75.8555C48.7822 76.5879 48.3252 77.1562 47.7334 77.5605C47.1475 77.9648 46.4502 78.167 45.6416 78.167C45.2021 78.167 44.792 78.0996 44.4111 77.9648C44.0303 77.8242 43.6934 77.6279 43.4004 77.376C43.1133 77.124 42.8818 76.8281 42.7061 76.4883H42.5654V81.1729H40.6582ZM45.0967 76.5234C45.6299 76.5234 46.084 76.3916 46.459 76.1279C46.8398 75.8643 47.1328 75.4863 47.3379 74.9941C47.543 74.502 47.6455 73.9189 47.6455 73.2451V73.2275C47.6455 72.542 47.543 71.9561 47.3379 71.4697C47.1328 70.9775 46.8398 70.5996 46.459 70.3359C46.084 70.0723 45.6299 69.9404 45.0967 69.9404C44.5693 69.9404 44.1123 70.0723 43.7256 70.3359C43.3447 70.5996 43.0518 70.9775 42.8467 71.4697C42.6416 71.9561 42.5391 72.5391 42.5391 73.2188V73.2363C42.5391 73.9102 42.6416 74.4961 42.8467 74.9941C43.0518 75.4863 43.3447 75.8643 43.7256 76.1279C44.1123 76.3916 44.5693 76.5234 45.0967 76.5234ZM55.8457 78.1846C54.9141 78.1846 54.1143 77.9854 53.4463 77.5869C52.7783 77.1826 52.2627 76.6113 51.8994 75.873C51.542 75.1348 51.3633 74.2646 51.3633 73.2627V73.2539C51.3633 72.2578 51.542 71.3877 51.8994 70.6436C52.2627 69.8994 52.7725 69.3193 53.4287 68.9033C54.085 68.4873 54.8555 68.2793 55.7402 68.2793C56.6309 68.2793 57.3955 68.4814 58.0342 68.8857C58.6787 69.2842 59.1738 69.8438 59.5195 70.5645C59.8652 71.2793 60.0381 72.1143 60.0381 73.0693V73.7373H52.3301V72.375H59.0889L58.1748 73.6318V72.876C58.1748 72.1963 58.0693 71.6338 57.8584 71.1885C57.6533 70.7373 57.3691 70.4033 57.0059 70.1865C56.6484 69.9639 56.2324 69.8525 55.7578 69.8525C55.2832 69.8525 54.8584 69.9697 54.4834 70.2041C54.1143 70.4326 53.8213 70.7725 53.6045 71.2236C53.3936 71.6689 53.2881 72.2197 53.2881 72.876V73.6406C53.2881 74.2617 53.3936 74.7949 53.6045 75.2402C53.8154 75.6855 54.1143 76.0254 54.501 76.2598C54.8936 76.4941 55.3535 76.6113 55.8809 76.6113C56.291 76.6113 56.6426 76.5557 56.9355 76.4443C57.2344 76.3271 57.4775 76.1836 57.665 76.0137C57.8584 75.8438 57.9902 75.6768 58.0605 75.5127L58.0957 75.4424L59.9414 75.4336L59.915 75.5127C59.8389 75.835 59.6982 76.1543 59.4932 76.4707C59.2881 76.7812 59.0156 77.0654 58.6758 77.3232C58.3418 77.5811 57.9375 77.7891 57.4629 77.9473C56.9941 78.1055 56.4551 78.1846 55.8457 78.1846ZM64.8984 78.1582C64.2949 78.1582 63.7529 78.0439 63.2725 77.8154C62.7979 77.5811 62.4229 77.25 62.1475 76.8223C61.8779 76.3945 61.7432 75.8936 61.7432 75.3193V75.3018C61.7432 74.7334 61.8809 74.2471 62.1562 73.8428C62.4316 73.4326 62.833 73.1133 63.3604 72.8848C63.8936 72.6504 64.5381 72.5127 65.2939 72.4717L68.8184 72.2607V73.6055L65.5576 73.8164C64.9014 73.8516 64.418 73.9893 64.1074 74.2295C63.8027 74.4697 63.6504 74.8008 63.6504 75.2227V75.2402C63.6504 75.6797 63.8145 76.0225 64.1426 76.2686C64.4766 76.5146 64.9014 76.6377 65.417 76.6377C65.8916 76.6377 66.3135 76.5439 66.6826 76.3564C67.0518 76.1631 67.3418 75.9053 67.5527 75.583C67.7637 75.2549 67.8691 74.8857 67.8691 74.4756V71.4873C67.8691 70.96 67.7051 70.5586 67.377 70.2832C67.0547 70.002 66.5742 69.8613 65.9355 69.8613C65.4023 69.8613 64.9688 69.9551 64.6348 70.1426C64.3008 70.3301 64.0752 70.5938 63.958 70.9336L63.9492 70.9688H62.1123L62.1211 70.8984C62.1973 70.377 62.4053 69.9199 62.7451 69.5273C63.085 69.1348 63.5332 68.8301 64.0898 68.6133C64.6465 68.3906 65.2881 68.2793 66.0146 68.2793C66.8174 68.2793 67.4971 68.4082 68.0537 68.666C68.6162 68.918 69.041 69.2842 69.3281 69.7646C69.6211 70.2393 69.7676 70.8105 69.7676 71.4785V78H67.8691V76.6377H67.7285C67.541 76.96 67.3066 77.2354 67.0254 77.4639C66.75 77.6924 66.4307 77.8652 66.0674 77.9824C65.71 78.0996 65.3203 78.1582 64.8984 78.1582ZM72.4219 78V68.4639H74.3291V69.9141H74.4697C74.7041 69.4043 75.0498 69.0059 75.5068 68.7188C75.9697 68.4258 76.5469 68.2793 77.2383 68.2793C78.3105 68.2793 79.1309 68.5869 79.6992 69.2021C80.2676 69.8174 80.5518 70.6934 80.5518 71.8301V78H78.6357V72.2695C78.6357 71.4844 78.4688 70.8984 78.1348 70.5117C77.8066 70.1191 77.291 69.9229 76.5879 69.9229C76.125 69.9229 75.7236 70.0254 75.3838 70.2305C75.0498 70.4297 74.7891 70.7139 74.6016 71.083C74.4199 71.4521 74.3291 71.8945 74.3291 72.4102V78H72.4219ZM89.2354 78V76.3916H93.0586C93.9492 76.3916 94.623 76.2129 95.0801 75.8555C95.5371 75.498 95.7656 74.9795 95.7656 74.2998V74.2822C95.7656 73.8311 95.6602 73.4531 95.4492 73.1484C95.2383 72.8379 94.9219 72.6064 94.5 72.4541C94.084 72.2959 93.5654 72.2168 92.9443 72.2168H89.2354V70.7139H92.5488C93.4219 70.7139 94.0811 70.5527 94.5264 70.2305C94.9717 69.9082 95.1943 69.4395 95.1943 68.8242V68.8066C95.1943 68.2148 94.9922 67.7549 94.5879 67.4268C94.1836 67.0928 93.6182 66.9258 92.8916 66.9258H89.2354V65.3174H93.3486C94.1455 65.3174 94.8281 65.4463 95.3965 65.7041C95.9648 65.9619 96.4014 66.3281 96.7061 66.8027C97.0107 67.2715 97.1631 67.8281 97.1631 68.4727V68.4902C97.1631 68.9355 97.0635 69.3516 96.8643 69.7383C96.665 70.125 96.3984 70.4502 96.0645 70.7139C95.7305 70.9717 95.3525 71.1357 94.9307 71.2061V71.3555C95.5049 71.4141 96.0059 71.5811 96.4336 71.8564C96.8613 72.1318 97.1953 72.4893 97.4355 72.9287C97.6758 73.3623 97.7959 73.8545 97.7959 74.4053V74.4229C97.7959 75.1611 97.6201 75.7998 97.2686 76.3389C96.9229 76.8721 96.4277 77.2822 95.7832 77.5693C95.1387 77.8564 94.3652 78 93.4629 78H89.2354ZM88.251 78V65.3174H90.2197V78H88.251ZM102.674 78.1582C102.07 78.1582 101.528 78.0439 101.048 77.8154C100.573 77.5811 100.198 77.25 99.9229 76.8223C99.6533 76.3945 99.5186 75.8936 99.5186 75.3193V75.3018C99.5186 74.7334 99.6562 74.2471 99.9316 73.8428C100.207 73.4326 100.608 73.1133 101.136 72.8848C101.669 72.6504 102.313 72.5127 103.069 72.4717L106.594 72.2607V73.6055L103.333 73.8164C102.677 73.8516 102.193 73.9893 101.883 74.2295C101.578 74.4697 101.426 74.8008 101.426 75.2227V75.2402C101.426 75.6797 101.59 76.0225 101.918 76.2686C102.252 76.5146 102.677 76.6377 103.192 76.6377C103.667 76.6377 104.089 76.5439 104.458 76.3564C104.827 76.1631 105.117 75.9053 105.328 75.583C105.539 75.2549 105.645 74.8857 105.645 74.4756V71.4873C105.645 70.96 105.48 70.5586 105.152 70.2832C104.83 70.002 104.35 69.8613 103.711 69.8613C103.178 69.8613 102.744 69.9551 102.41 70.1426C102.076 70.3301 101.851 70.5938 101.733 70.9336L101.725 70.9688H99.8877L99.8965 70.8984C99.9727 70.377 100.181 69.9199 100.521 69.5273C100.86 69.1348 101.309 68.8301 101.865 68.6133C102.422 68.3906 103.063 68.2793 103.79 68.2793C104.593 68.2793 105.272 68.4082 105.829 68.666C106.392 68.918 106.816 69.2842 107.104 69.7646C107.396 70.2393 107.543 70.8105 107.543 71.4785V78H105.645V76.6377H105.504C105.316 76.96 105.082 77.2354 104.801 77.4639C104.525 77.6924 104.206 77.8652 103.843 77.9824C103.485 78.0996 103.096 78.1582 102.674 78.1582ZM110.197 78V68.4639H112.104V69.9141H112.245C112.479 69.4043 112.825 69.0059 113.282 68.7188C113.745 68.4258 114.322 68.2793 115.014 68.2793C116.086 68.2793 116.906 68.5869 117.475 69.2021C118.043 69.8174 118.327 70.6934 118.327 71.8301V78H116.411V72.2695C116.411 71.4844 116.244 70.8984 115.91 70.5117C115.582 70.1191 115.066 69.9229 114.363 69.9229C113.9 69.9229 113.499 70.0254 113.159 70.2305C112.825 70.4297 112.564 70.7139 112.377 71.083C112.195 71.4521 112.104 71.8945 112.104 72.4102V78H110.197ZM121.043 78V64.7373H122.95V78H121.043ZM127.046 78L123.618 73.5264L125.024 72.3398L129.375 78H127.046ZM122.757 74.7305L122.687 72.4805H123.091L126.87 68.4639H129.111L124.805 72.832L124.084 73.4121L122.757 74.7305ZM131.089 78V68.4639H133.005V78H131.089ZM132.056 66.7764C131.728 66.7764 131.446 66.6592 131.212 66.4248C130.978 66.1904 130.86 65.9121 130.86 65.5898C130.86 65.2617 130.978 64.9834 131.212 64.7549C131.446 64.5205 131.728 64.4033 132.056 64.4033C132.384 64.4033 132.665 64.5205 132.899 64.7549C133.134 64.9834 133.251 65.2617 133.251 65.5898C133.251 65.9121 133.134 66.1904 132.899 66.4248C132.665 66.6592 132.384 66.7764 132.056 66.7764ZM135.738 78V68.4639H137.646V69.9141H137.786C138.021 69.4043 138.366 69.0059 138.823 68.7188C139.286 68.4258 139.863 68.2793 140.555 68.2793C141.627 68.2793 142.447 68.5869 143.016 69.2021C143.584 69.8174 143.868 70.6934 143.868 71.8301V78H141.952V72.2695C141.952 71.4844 141.785 70.8984 141.451 70.5117C141.123 70.1191 140.607 69.9229 139.904 69.9229C139.441 69.9229 139.04 70.0254 138.7 70.2305C138.366 70.4297 138.105 70.7139 137.918 71.083C137.736 71.4521 137.646 71.8945 137.646 72.4102V78H135.738ZM150.53 81.3574C149.722 81.3574 149.021 81.2461 148.43 81.0234C147.838 80.8066 147.366 80.499 147.015 80.1006C146.669 79.7021 146.458 79.2393 146.382 78.7119L146.391 78.6855H148.324L148.333 78.7119C148.415 79.04 148.646 79.3066 149.027 79.5117C149.408 79.7227 149.915 79.8281 150.548 79.8281C151.339 79.8281 151.954 79.6494 152.394 79.292C152.833 78.9346 153.053 78.4336 153.053 77.7891V75.9434H152.912C152.719 76.2832 152.476 76.5762 152.183 76.8223C151.896 77.0625 151.564 77.2441 151.189 77.3672C150.814 77.4902 150.407 77.5518 149.968 77.5518C149.159 77.5518 148.459 77.3584 147.867 76.9717C147.275 76.5791 146.818 76.04 146.496 75.3545C146.174 74.6631 146.013 73.8662 146.013 72.9639V72.9551C146.013 72.041 146.174 71.2354 146.496 70.5381C146.818 69.8408 147.278 69.2959 147.876 68.9033C148.474 68.5049 149.183 68.3057 150.003 68.3057C150.448 68.3057 150.858 68.376 151.233 68.5166C151.608 68.6572 151.939 68.8564 152.227 69.1143C152.514 69.3721 152.748 69.6797 152.93 70.0371H153.035V68.4639H154.951V77.8066C154.951 78.5273 154.77 79.1543 154.406 79.6875C154.049 80.2207 153.539 80.6309 152.877 80.918C152.215 81.2109 151.433 81.3574 150.53 81.3574ZM150.495 75.9785C151.034 75.9785 151.497 75.8525 151.884 75.6006C152.271 75.3428 152.566 74.9883 152.771 74.5371C152.982 74.0859 153.088 73.5615 153.088 72.9639V72.9463C153.088 72.3545 152.982 71.8301 152.771 71.373C152.566 70.916 152.271 70.5615 151.884 70.3096C151.497 70.0518 151.034 69.9229 150.495 69.9229C149.962 69.9229 149.505 70.0518 149.124 70.3096C148.749 70.5615 148.462 70.916 148.263 71.373C148.063 71.8301 147.964 72.3545 147.964 72.9463V72.9639C147.964 73.5615 148.063 74.0859 148.263 74.5371C148.462 74.9883 148.749 75.3428 149.124 75.6006C149.505 75.8525 149.962 75.9785 150.495 75.9785ZM162.729 78V65.3174H164.698V78H162.729ZM167.625 78V68.4639H169.532V69.9141H169.673C169.907 69.4043 170.253 69.0059 170.71 68.7188C171.173 68.4258 171.75 68.2793 172.441 68.2793C173.514 68.2793 174.334 68.5869 174.902 69.2021C175.471 69.8174 175.755 70.6934 175.755 71.8301V78H173.839V72.2695C173.839 71.4844 173.672 70.8984 173.338 70.5117C173.01 70.1191 172.494 69.9229 171.791 69.9229C171.328 69.9229 170.927 70.0254 170.587 70.2305C170.253 70.4297 169.992 70.7139 169.805 71.083C169.623 71.4521 169.532 71.8945 169.532 72.4102V78H167.625ZM179.051 78V69.9756H177.495V68.4639H179.051V67.4707C179.051 66.832 179.156 66.3047 179.367 65.8887C179.584 65.4727 179.912 65.1621 180.352 64.957C180.791 64.752 181.339 64.6494 181.995 64.6494C182.212 64.6494 182.411 64.6582 182.593 64.6758C182.78 64.6875 182.959 64.708 183.129 64.7373V66.1348C183.041 66.1172 182.933 66.1055 182.804 66.0996C182.681 66.0938 182.546 66.0908 182.399 66.0908C181.878 66.0908 181.503 66.2139 181.274 66.46C181.052 66.7061 180.94 67.0723 180.94 67.5586V68.4639H183.041V69.9756H180.958V78H179.051ZM185.15 78V68.4639H187.058V69.9141H187.198C187.368 69.4043 187.667 69.0088 188.095 68.7275C188.522 68.4463 189.053 68.3057 189.686 68.3057C189.838 68.3057 189.99 68.3145 190.143 68.332C190.295 68.3438 190.418 68.3613 190.512 68.3848V70.1514C190.342 70.1104 190.175 70.0811 190.011 70.0635C189.847 70.0459 189.674 70.0371 189.492 70.0371C189.006 70.0371 188.581 70.1309 188.218 70.3184C187.854 70.5059 187.57 70.7695 187.365 71.1094C187.16 71.4434 187.058 71.8418 187.058 72.3047V78H185.15ZM194.854 78.1582C194.25 78.1582 193.708 78.0439 193.228 77.8154C192.753 77.5811 192.378 77.25 192.103 76.8223C191.833 76.3945 191.698 75.8936 191.698 75.3193V75.3018C191.698 74.7334 191.836 74.2471 192.111 73.8428C192.387 73.4326 192.788 73.1133 193.315 72.8848C193.849 72.6504 194.493 72.5127 195.249 72.4717L198.773 72.2607V73.6055L195.513 73.8164C194.856 73.8516 194.373 73.9893 194.062 74.2295C193.758 74.4697 193.605 74.8008 193.605 75.2227V75.2402C193.605 75.6797 193.77 76.0225 194.098 76.2686C194.432 76.5146 194.856 76.6377 195.372 76.6377C195.847 76.6377 196.269 76.5439 196.638 76.3564C197.007 76.1631 197.297 75.9053 197.508 75.583C197.719 75.2549 197.824 74.8857 197.824 74.4756V71.4873C197.824 70.96 197.66 70.5586 197.332 70.2832C197.01 70.002 196.529 69.8613 195.891 69.8613C195.357 69.8613 194.924 69.9551 194.59 70.1426C194.256 70.3301 194.03 70.5938 193.913 70.9336L193.904 70.9688H192.067L192.076 70.8984C192.152 70.377 192.36 69.9199 192.7 69.5273C193.04 69.1348 193.488 68.8301 194.045 68.6133C194.602 68.3906 195.243 68.2793 195.97 68.2793C196.772 68.2793 197.452 68.4082 198.009 68.666C198.571 68.918 198.996 69.2842 199.283 69.7646C199.576 70.2393 199.723 70.8105 199.723 71.4785V78H197.824V76.6377H197.684C197.496 76.96 197.262 77.2354 196.98 77.4639C196.705 77.6924 196.386 77.8652 196.022 77.9824C195.665 78.0996 195.275 78.1582 194.854 78.1582ZM205.849 78.1846C205.081 78.1846 204.413 78.0732 203.845 77.8506C203.276 77.6221 202.825 77.3057 202.491 76.9014C202.157 76.4971 201.961 76.0283 201.902 75.4951V75.4775H203.818V75.4951C203.941 75.8584 204.173 76.1514 204.513 76.374C204.858 76.5967 205.315 76.708 205.884 76.708C206.276 76.708 206.619 76.6523 206.912 76.541C207.211 76.4297 207.445 76.2773 207.615 76.084C207.785 75.8848 207.87 75.6562 207.87 75.3984V75.3809C207.87 75.082 207.75 74.8301 207.51 74.625C207.27 74.4199 206.874 74.2529 206.323 74.124L204.803 73.7725C204.205 73.6377 203.71 73.4531 203.317 73.2188C202.925 72.9844 202.635 72.6973 202.447 72.3574C202.26 72.0117 202.166 71.6074 202.166 71.1445V71.1357C202.166 70.5791 202.324 70.0869 202.641 69.6592C202.957 69.2314 203.394 68.8945 203.95 68.6484C204.513 68.4023 205.151 68.2793 205.866 68.2793C206.599 68.2793 207.234 68.3936 207.773 68.6221C208.312 68.8506 208.74 69.1641 209.057 69.5625C209.373 69.9609 209.558 70.418 209.61 70.9336V70.9512H207.791L207.782 70.9336C207.7 70.5938 207.492 70.3125 207.158 70.0898C206.83 69.8672 206.396 69.7559 205.857 69.7559C205.512 69.7559 205.204 69.8115 204.935 69.9229C204.671 70.0283 204.46 70.1777 204.302 70.3711C204.149 70.5586 204.073 70.7812 204.073 71.0391V71.0479C204.073 71.2471 204.123 71.4229 204.223 71.5752C204.328 71.7217 204.489 71.8535 204.706 71.9707C204.929 72.082 205.219 72.1816 205.576 72.2695L207.088 72.6123C208.008 72.8291 208.688 73.1426 209.127 73.5527C209.572 73.9629 209.795 74.5137 209.795 75.2051V75.2139C209.795 75.8057 209.622 76.3242 209.276 76.7695C208.937 77.2148 208.468 77.5635 207.87 77.8154C207.278 78.0615 206.604 78.1846 205.849 78.1846ZM215.561 78.0615C214.523 78.0615 213.771 77.8623 213.302 77.4639C212.839 77.0654 212.607 76.4062 212.607 75.4863V69.9756H211.122V68.4639H212.607V66.0645H214.559V68.4639H216.589V69.9756H214.559V75.0469C214.559 75.5566 214.661 75.9258 214.866 76.1543C215.071 76.377 215.408 76.4883 215.877 76.4883C216.023 76.4883 216.146 76.4854 216.246 76.4795C216.346 76.4678 216.46 76.4561 216.589 76.4443V77.9648C216.442 77.9941 216.281 78.0176 216.105 78.0352C215.93 78.0527 215.748 78.0615 215.561 78.0615ZM218.795 78V68.4639H220.702V69.9141H220.843C221.013 69.4043 221.312 69.0088 221.739 68.7275C222.167 68.4463 222.697 68.3057 223.33 68.3057C223.482 68.3057 223.635 68.3145 223.787 68.332C223.939 68.3438 224.062 68.3613 224.156 68.3848V70.1514C223.986 70.1104 223.819 70.0811 223.655 70.0635C223.491 70.0459 223.318 70.0371 223.137 70.0371C222.65 70.0371 222.226 70.1309 221.862 70.3184C221.499 70.5059 221.215 70.7695 221.01 71.1094C220.805 71.4434 220.702 71.8418 220.702 72.3047V78H218.795ZM229.131 78.1846C228.416 78.1846 227.815 78.0469 227.329 77.7715C226.843 77.4902 226.477 77.0859 226.23 76.5586C225.984 76.0254 225.861 75.3838 225.861 74.6338V68.4639H227.769V74.1943C227.769 74.9795 227.924 75.5684 228.234 75.9609C228.545 76.3477 229.052 76.541 229.755 76.541C230.13 76.541 230.461 76.4854 230.748 76.374C231.041 76.2568 231.287 76.0898 231.486 75.873C231.686 75.6562 231.835 75.3955 231.935 75.0908C232.034 74.7861 232.084 74.4434 232.084 74.0625V68.4639H233.991V78H232.084V76.5586H231.935C231.788 76.8984 231.583 77.1914 231.319 77.4375C231.056 77.6777 230.739 77.8623 230.37 77.9912C230.007 78.1201 229.594 78.1846 229.131 78.1846ZM240.724 78.1846C239.792 78.1846 238.992 77.9854 238.324 77.5869C237.656 77.1826 237.141 76.6084 236.777 75.8643C236.414 75.1201 236.232 74.2354 236.232 73.21V73.1924C236.232 72.1846 236.411 71.3145 236.769 70.582C237.132 69.8438 237.647 69.2754 238.315 68.877C238.989 68.4785 239.789 68.2793 240.715 68.2793C241.512 68.2793 242.2 68.4199 242.78 68.7012C243.36 68.9824 243.82 69.3662 244.16 69.8525C244.506 70.333 244.72 70.8809 244.802 71.4961L244.811 71.54H242.974L242.965 71.5137C242.859 71.0508 242.616 70.6641 242.235 70.3535C241.854 70.0371 241.351 69.8789 240.724 69.8789C240.196 69.8789 239.742 70.0137 239.361 70.2832C238.98 70.5469 238.688 70.9277 238.482 71.4258C238.283 71.918 238.184 72.5068 238.184 73.1924V73.21C238.184 73.9072 238.286 74.5107 238.491 75.0205C238.696 75.5244 238.986 75.9111 239.361 76.1807C239.742 76.4502 240.196 76.585 240.724 76.585C241.321 76.585 241.805 76.4531 242.174 76.1895C242.543 75.9199 242.804 75.5273 242.956 75.0117L242.974 74.9678L244.802 74.959L244.793 75.0469C244.676 75.6621 244.447 76.207 244.107 76.6816C243.768 77.1504 243.316 77.5195 242.754 77.7891C242.191 78.0527 241.515 78.1846 240.724 78.1846ZM250.646 78.0615C249.609 78.0615 248.856 77.8623 248.388 77.4639C247.925 77.0654 247.693 76.4062 247.693 75.4863V69.9756H246.208V68.4639H247.693V66.0645H249.645V68.4639H251.675V69.9756H249.645V75.0469C249.645 75.5566 249.747 75.9258 249.952 76.1543C250.157 76.377 250.494 76.4883 250.963 76.4883C251.109 76.4883 251.232 76.4854 251.332 76.4795C251.432 76.4678 251.546 76.4561 251.675 76.4443V77.9648C251.528 77.9941 251.367 78.0176 251.191 78.0352C251.016 78.0527 250.834 78.0615 250.646 78.0615ZM257.062 78.1846C256.348 78.1846 255.747 78.0469 255.261 77.7715C254.774 77.4902 254.408 77.0859 254.162 76.5586C253.916 76.0254 253.793 75.3838 253.793 74.6338V68.4639H255.7V74.1943C255.7 74.9795 255.855 75.5684 256.166 75.9609C256.477 76.3477 256.983 76.541 257.687 76.541C258.062 76.541 258.393 76.4854 258.68 76.374C258.973 76.2568 259.219 76.0898 259.418 75.873C259.617 75.6562 259.767 75.3955 259.866 75.0908C259.966 74.7861 260.016 74.4434 260.016 74.0625V68.4639H261.923V78H260.016V76.5586H259.866C259.72 76.8984 259.515 77.1914 259.251 77.4375C258.987 77.6777 258.671 77.8623 258.302 77.9912C257.938 78.1201 257.525 78.1846 257.062 78.1846ZM264.639 78V68.4639H266.546V69.9141H266.687C266.856 69.4043 267.155 69.0088 267.583 68.7275C268.011 68.4463 268.541 68.3057 269.174 68.3057C269.326 68.3057 269.479 68.3145 269.631 68.332C269.783 68.3438 269.906 68.3613 270 68.3848V70.1514C269.83 70.1104 269.663 70.0811 269.499 70.0635C269.335 70.0459 269.162 70.0371 268.98 70.0371C268.494 70.0371 268.069 70.1309 267.706 70.3184C267.343 70.5059 267.059 70.7695 266.854 71.1094C266.648 71.4434 266.546 71.8418 266.546 72.3047V78H264.639ZM275.555 78.1846C274.623 78.1846 273.823 77.9854 273.155 77.5869C272.487 77.1826 271.972 76.6113 271.608 75.873C271.251 75.1348 271.072 74.2646 271.072 73.2627V73.2539C271.072 72.2578 271.251 71.3877 271.608 70.6436C271.972 69.8994 272.481 69.3193 273.138 68.9033C273.794 68.4873 274.564 68.2793 275.449 68.2793C276.34 68.2793 277.104 68.4814 277.743 68.8857C278.388 69.2842 278.883 69.8438 279.229 70.5645C279.574 71.2793 279.747 72.1143 279.747 73.0693V73.7373H272.039V72.375H278.798L277.884 73.6318V72.876C277.884 72.1963 277.778 71.6338 277.567 71.1885C277.362 70.7373 277.078 70.4033 276.715 70.1865C276.357 69.9639 275.941 69.8525 275.467 69.8525C274.992 69.8525 274.567 69.9697 274.192 70.2041C273.823 70.4326 273.53 70.7725 273.313 71.2236C273.103 71.6689 272.997 72.2197 272.997 72.876V73.6406C272.997 74.2617 273.103 74.7949 273.313 75.2402C273.524 75.6855 273.823 76.0254 274.21 76.2598C274.603 76.4941 275.062 76.6113 275.59 76.6113C276 76.6113 276.352 76.5557 276.645 76.4443C276.943 76.3271 277.187 76.1836 277.374 76.0137C277.567 75.8438 277.699 75.6768 277.77 75.5127L277.805 75.4424L279.65 75.4336L279.624 75.5127C279.548 75.835 279.407 76.1543 279.202 76.4707C278.997 76.7812 278.725 77.0654 278.385 77.3232C278.051 77.5811 277.646 77.7891 277.172 77.9473C276.703 78.1055 276.164 78.1846 275.555 78.1846Z" fill="black"/>
<path d="M14.1006 48V12.7705H20.3994V27.4189H37.5381V12.7705H43.8125V48H37.5381V32.7168H20.3994V48H14.1006ZM52.8945 56.5938C52.3086 56.5938 51.7308 56.5612 51.1611 56.4961C50.6077 56.4473 50.1439 56.3903 49.7695 56.3252V51.7109C49.9974 51.7435 50.2822 51.7842 50.624 51.833C50.9658 51.8818 51.3564 51.9062 51.7959 51.9062C52.9678 51.9062 53.8955 51.7028 54.5791 51.2959C55.2627 50.9053 55.7998 50.1647 56.1904 49.0742L56.5566 48.0244L47.2549 22.1211H53.8711L60.3164 44.0938L59.3887 42.8242H60.6826L59.7549 44.0938L66.2002 22.1211H72.5967L63.2705 48.8789C62.6195 50.7669 61.8301 52.2725 60.9023 53.3955C59.9746 54.5348 58.8516 55.3486 57.5332 55.8369C56.2311 56.3415 54.6849 56.5938 52.8945 56.5938ZM75.4043 56.5449V22.1211H81.459V26.5889H81.6055C82.11 25.5472 82.7448 24.6602 83.5098 23.9277C84.291 23.179 85.1943 22.6012 86.2197 22.1943C87.2614 21.7874 88.3926 21.584 89.6133 21.584C91.8105 21.584 93.7067 22.1292 95.3018 23.2197C96.9131 24.2939 98.1501 25.8402 99.0127 27.8584C99.8916 29.8766 100.331 32.2773 100.331 35.0605V35.085C100.331 37.8519 99.8916 40.2445 99.0127 42.2627C98.1501 44.2646 96.9212 45.8109 95.3262 46.9014C93.7474 47.9756 91.8757 48.5127 89.7109 48.5127C88.4902 48.5127 87.3509 48.3174 86.293 47.9268C85.2513 47.5361 84.3317 46.9746 83.5342 46.2422C82.7367 45.5098 82.0938 44.639 81.6055 43.6299H81.459V56.5449H75.4043ZM87.8311 43.4102C89.1331 43.4102 90.2562 43.0684 91.2002 42.3848C92.1442 41.7012 92.8685 40.7409 93.373 39.5039C93.8939 38.2507 94.1543 36.7777 94.1543 35.085V35.0605C94.1543 33.319 93.8939 31.8298 93.373 30.5928C92.8685 29.3395 92.1361 28.3792 91.1758 27.7119C90.2318 27.0446 89.1169 26.7109 87.8311 26.7109C86.5778 26.7109 85.471 27.0527 84.5107 27.7363C83.5505 28.4199 82.7936 29.3883 82.2402 30.6416C81.7031 31.8786 81.4346 33.3516 81.4346 35.0605V35.085C81.4346 36.7777 81.7031 38.2507 82.2402 39.5039C82.7936 40.7409 83.5505 41.7012 84.5107 42.3848C85.471 43.0684 86.5778 43.4102 87.8311 43.4102Z" fill="black"/>
<path d="M152.109 48.5127C149.928 48.5127 148.032 47.9756 146.421 46.9014C144.826 45.8109 143.589 44.2565 142.71 42.2383C141.847 40.2201 141.416 37.8275 141.416 35.0605V35.0361C141.416 32.2529 141.855 29.8604 142.734 27.8584C143.613 25.8402 144.85 24.2939 146.445 23.2197C148.04 22.1292 149.92 21.584 152.085 21.584C153.322 21.584 154.453 21.7874 155.479 22.1943C156.52 22.585 157.44 23.1546 158.237 23.9033C159.035 24.6357 159.678 25.5228 160.166 26.5645H160.312V12.7705H166.367V48H160.312V43.6055H160.166C159.694 44.6309 159.059 45.5098 158.262 46.2422C157.48 46.9583 156.569 47.5199 155.527 47.9268C154.502 48.3174 153.363 48.5127 152.109 48.5127ZM153.94 43.4102C155.194 43.4102 156.3 43.0684 157.261 42.3848C158.221 41.7012 158.97 40.7327 159.507 39.4795C160.044 38.2262 160.312 36.7533 160.312 35.0605V35.0361C160.312 33.3434 160.036 31.8786 159.482 30.6416C158.945 29.3883 158.197 28.4199 157.236 27.7363C156.292 27.0527 155.194 26.7109 153.94 26.7109C152.638 26.7109 151.507 27.0527 150.547 27.7363C149.603 28.4036 148.87 29.3558 148.35 30.5928C147.845 31.8298 147.593 33.3109 147.593 35.0361V35.0605C147.593 36.7695 147.845 38.2507 148.35 39.5039C148.87 40.7572 149.603 41.7256 150.547 42.4092C151.507 43.0765 152.638 43.4102 153.94 43.4102ZM182.944 48.5127C180.405 48.5127 178.2 47.9756 176.328 46.9014C174.456 45.8109 173 44.2646 171.958 42.2627C170.933 40.2445 170.42 37.8438 170.42 35.0605V35.0117C170.42 32.2448 170.941 29.8604 171.982 27.8584C173.024 25.8402 174.481 24.2939 176.353 23.2197C178.224 22.1292 180.413 21.584 182.92 21.584C185.443 21.584 187.64 22.1292 189.512 23.2197C191.4 24.2939 192.865 25.832 193.906 27.834C194.948 29.8359 195.469 32.2285 195.469 35.0117V35.0605C195.469 37.86 194.948 40.2689 193.906 42.2871C192.881 44.2891 191.432 45.8271 189.561 46.9014C187.689 47.9756 185.483 48.5127 182.944 48.5127ZM182.969 43.6055C184.255 43.6055 185.369 43.2718 186.313 42.6045C187.257 41.9372 187.982 40.9688 188.486 39.6992C189.007 38.4134 189.268 36.8672 189.268 35.0605V35.0117C189.268 33.2214 189.007 31.6914 188.486 30.4219C187.965 29.1523 187.225 28.1839 186.265 27.5166C185.321 26.8493 184.206 26.5156 182.92 26.5156C181.667 26.5156 180.56 26.8493 179.6 27.5166C178.656 28.1839 177.915 29.1523 177.378 30.4219C176.857 31.6914 176.597 33.2214 176.597 35.0117V35.0605C176.597 36.8672 176.857 38.4134 177.378 39.6992C177.915 40.9688 178.656 41.9372 179.6 42.6045C180.56 43.2718 181.683 43.6055 182.969 43.6055ZM199.375 48V22.1211H205.43V26.2715H205.576C206.113 24.8555 207.017 23.7243 208.286 22.8779C209.556 22.0153 211.045 21.584 212.754 21.584C213.958 21.584 215.041 21.7956 216.001 22.2188C216.961 22.6257 217.775 23.2197 218.442 24.001C219.126 24.766 219.622 25.7018 219.932 26.8086H220.054C220.477 25.7344 221.079 24.8148 221.86 24.0498C222.658 23.2686 223.586 22.6663 224.644 22.2432C225.718 21.8037 226.873 21.584 228.11 21.584C229.819 21.584 231.3 21.9502 232.554 22.6826C233.823 23.3988 234.808 24.4079 235.508 25.71C236.224 26.9958 236.582 28.5094 236.582 30.251V48H230.503V31.7402C230.503 30.666 230.324 29.7546 229.966 29.0059C229.608 28.2572 229.087 27.6875 228.403 27.2969C227.72 26.9062 226.873 26.7109 225.864 26.7109C224.888 26.7109 224.025 26.9388 223.276 27.3945C222.544 27.834 221.966 28.4525 221.543 29.25C221.136 30.0475 220.933 30.9671 220.933 32.0088V48H215.024V31.4229C215.024 30.4463 214.837 29.6081 214.463 28.9082C214.089 28.2083 213.56 27.6712 212.876 27.2969C212.192 26.9062 211.379 26.7109 210.435 26.7109C209.458 26.7109 208.595 26.9469 207.847 27.4189C207.098 27.891 206.504 28.5339 206.064 29.3477C205.641 30.1615 205.43 31.0973 205.43 32.1553V48H199.375ZM252.842 48.5127C250.254 48.5127 248.024 47.9674 246.152 46.877C244.297 45.7865 242.873 44.2402 241.88 42.2383C240.887 40.2363 240.391 37.8682 240.391 35.1338V35.1094C240.391 32.3913 240.887 30.0231 241.88 28.0049C242.889 25.9704 244.297 24.3916 246.104 23.2686C247.926 22.1455 250.075 21.584 252.549 21.584C255.007 21.584 257.131 22.1292 258.921 23.2197C260.728 24.2939 262.111 25.8076 263.071 27.7607C264.048 29.7139 264.536 31.9925 264.536 34.5967V36.5498H243.394V32.4971H261.631L258.701 36.2812V33.9375C258.701 32.2448 258.441 30.8369 257.92 29.7139C257.399 28.5908 256.683 27.7526 255.771 27.1992C254.86 26.6296 253.81 26.3447 252.622 26.3447C251.418 26.3447 250.343 26.6377 249.399 27.2236C248.472 27.7933 247.739 28.6478 247.202 29.7871C246.681 30.9264 246.421 32.3099 246.421 33.9375V36.2812C246.421 37.86 246.681 39.2109 247.202 40.334C247.739 41.4408 248.496 42.2952 249.473 42.8975C250.449 43.4834 251.613 43.7764 252.964 43.7764C253.973 43.7764 254.86 43.6217 255.625 43.3125C256.39 42.987 257.017 42.5719 257.505 42.0674C258.009 41.5628 258.359 41.0176 258.555 40.4316L258.604 40.2607H264.268L264.219 40.5293C264.007 41.5221 263.617 42.4987 263.047 43.459C262.477 44.403 261.712 45.2575 260.752 46.0225C259.792 46.7874 258.652 47.3978 257.334 47.8535C256.016 48.293 254.518 48.5127 252.842 48.5127Z" fill="black"/>
<path d="M262 54C263.105 54 264 53.1046 264 52C264 50.8954 263.105 50 262 50V52V54ZM102 52V54H262V52V50H102V52Z" fill="#0F3758"/>
<path fill-rule="evenodd" clip-rule="evenodd" d="M120.033 21.5145C125.45 21.5195 130.247 24.6215 133.58 29.3215C136.922 34.0333 138.952 40.5199 138.989 47.9545C138.989 48.1322 138.988 48.3096 138.986 48.4867L132.986 48.516C132.988 48.3391 132.99 48.1617 132.989 47.9838C132.957 41.5835 131.207 36.3462 128.686 32.7917C126.157 29.2253 123.008 27.5174 120.028 27.5146C117.103 27.5119 114.122 29.1974 111.751 32.7758C109.379 36.3561 107.786 41.6448 107.817 48.091C107.818 48.2743 107.821 48.4569 107.825 48.6389L101.825 48.6682C101.821 48.4859 101.818 48.3033 101.817 48.1203C101.781 40.7314 103.597 34.2204 106.749 29.4622C109.903 24.7024 114.562 21.5096 120.033 21.5145Z" fill="#0F3758"/>
</svg>
