<svg width="276" height="92" viewBox="0 0 276 92" fill="none" xmlns="http://www.w3.org/2000/svg">
<path d="M3.10059 48V12.7705H9.39941V27.4189H26.5381V12.7705H32.8125V48H26.5381V32.7168H9.39941V48H3.10059ZM41.8945 56.5938C41.3086 56.5938 40.7308 56.5612 40.1611 56.4961C39.6077 56.4473 39.1439 56.3903 38.7695 56.3252V51.7109C38.9974 51.7435 39.2822 51.7842 39.624 51.833C39.9658 51.8818 40.3564 51.9062 40.7959 51.9062C41.9678 51.9062 42.8955 51.7028 43.5791 51.2959C44.2627 50.9053 44.7998 50.1647 45.1904 49.0742L45.5566 48.0244L36.2549 22.1211H42.8711L49.3164 44.0938L48.3887 42.8242H49.6826L48.7549 44.0938L55.2002 22.1211H61.5967L52.2705 48.8789C51.6195 50.7669 50.8301 52.2725 49.9023 53.3955C48.9746 54.5348 47.8516 55.3486 46.5332 55.8369C45.2311 56.3415 43.6849 56.5938 41.8945 56.5938ZM64.4043 56.5449V22.1211H70.459V26.5889H70.6055C71.11 25.5472 71.7448 24.6602 72.5098 23.9277C73.291 23.179 74.1943 22.6012 75.2197 22.1943C76.2614 21.7874 77.3926 21.584 78.6133 21.584C80.8105 21.584 82.7067 22.1292 84.3018 23.2197C85.9131 24.2939 87.1501 25.8402 88.0127 27.8584C88.8916 29.8766 89.3311 32.2773 89.3311 35.0605V35.085C89.3311 37.8519 88.8916 40.2445 88.0127 42.2627C87.1501 44.2646 85.9212 45.8109 84.3262 46.9014C82.7474 47.9756 80.8757 48.5127 78.7109 48.5127C77.4902 48.5127 76.3509 48.3174 75.293 47.9268C74.2513 47.5361 73.3317 46.9746 72.5342 46.2422C71.7367 45.5098 71.0938 44.639 70.6055 43.6299H70.459V56.5449H64.4043ZM76.8311 43.4102C78.1331 43.4102 79.2562 43.0684 80.2002 42.3848C81.1442 41.7012 81.8685 40.7409 82.373 39.5039C82.8939 38.2507 83.1543 36.7777 83.1543 35.085V35.0605C83.1543 33.319 82.8939 31.8298 82.373 30.5928C81.8685 29.3395 81.1361 28.3792 80.1758 27.7119C79.2318 27.0446 78.1169 26.7109 76.8311 26.7109C75.5778 26.7109 74.471 27.0527 73.5107 27.7363C72.5505 28.4199 71.7936 29.3883 71.2402 30.6416C70.7031 31.8786 70.4346 33.3516 70.4346 35.0605V35.085C70.4346 36.7777 70.7031 38.2507 71.2402 39.5039C71.7936 40.7409 72.5505 41.7012 73.5107 42.3848C74.471 43.0684 75.5778 43.4102 76.8311 43.4102Z" fill="black"/>
<path d="M141.109 48.5127C138.928 48.5127 137.032 47.9756 135.421 46.9014C133.826 45.8109 132.589 44.2565 131.71 42.2383C130.847 40.2201 130.416 37.8275 130.416 35.0605V35.0361C130.416 32.2529 130.855 29.8604 131.734 27.8584C132.613 25.8402 133.85 24.2939 135.445 23.2197C137.04 22.1292 138.92 21.584 141.085 21.584C142.322 21.584 143.453 21.7874 144.479 22.1943C145.52 22.585 146.44 23.1546 147.237 23.9033C148.035 24.6357 148.678 25.5228 149.166 26.5645H149.312V12.7705H155.367V48H149.312V43.6055H149.166C148.694 44.6309 148.059 45.5098 147.262 46.2422C146.48 46.9583 145.569 47.5199 144.527 47.9268C143.502 48.3174 142.363 48.5127 141.109 48.5127ZM142.94 43.4102C144.194 43.4102 145.3 43.0684 146.261 42.3848C147.221 41.7012 147.97 40.7327 148.507 39.4795C149.044 38.2262 149.312 36.7533 149.312 35.0605V35.0361C149.312 33.3434 149.036 31.8786 148.482 30.6416C147.945 29.3883 147.197 28.4199 146.236 27.7363C145.292 27.0527 144.194 26.7109 142.94 26.7109C141.638 26.7109 140.507 27.0527 139.547 27.7363C138.603 28.4036 137.87 29.3558 137.35 30.5928C136.845 31.8298 136.593 33.3109 136.593 35.0361V35.0605C136.593 36.7695 136.845 38.2507 137.35 39.5039C137.87 40.7572 138.603 41.7256 139.547 42.4092C140.507 43.0765 141.638 43.4102 142.94 43.4102ZM171.944 48.5127C169.405 48.5127 167.2 47.9756 165.328 46.9014C163.456 45.8109 162 44.2646 160.958 42.2627C159.933 40.2445 159.42 37.8438 159.42 35.0605V35.0117C159.42 32.2448 159.941 29.8604 160.982 27.8584C162.024 25.8402 163.481 24.2939 165.353 23.2197C167.224 22.1292 169.413 21.584 171.92 21.584C174.443 21.584 176.64 22.1292 178.512 23.2197C180.4 24.2939 181.865 25.832 182.906 27.834C183.948 29.8359 184.469 32.2285 184.469 35.0117V35.0605C184.469 37.86 183.948 40.2689 182.906 42.2871C181.881 44.2891 180.432 45.8271 178.561 46.9014C176.689 47.9756 174.483 48.5127 171.944 48.5127ZM171.969 43.6055C173.255 43.6055 174.369 43.2718 175.313 42.6045C176.257 41.9372 176.982 40.9688 177.486 39.6992C178.007 38.4134 178.268 36.8672 178.268 35.0605V35.0117C178.268 33.2214 178.007 31.6914 177.486 30.4219C176.965 29.1523 176.225 28.1839 175.265 27.5166C174.321 26.8493 173.206 26.5156 171.92 26.5156C170.667 26.5156 169.56 26.8493 168.6 27.5166C167.656 28.1839 166.915 29.1523 166.378 30.4219C165.857 31.6914 165.597 33.2214 165.597 35.0117V35.0605C165.597 36.8672 165.857 38.4134 166.378 39.6992C166.915 40.9688 167.656 41.9372 168.6 42.6045C169.56 43.2718 170.683 43.6055 171.969 43.6055ZM188.375 48V22.1211H194.43V26.2715H194.576C195.113 24.8555 196.017 23.7243 197.286 22.8779C198.556 22.0153 200.045 21.584 201.754 21.584C202.958 21.584 204.041 21.7956 205.001 22.2188C205.961 22.6257 206.775 23.2197 207.442 24.001C208.126 24.766 208.622 25.7018 208.932 26.8086H209.054C209.477 25.7344 210.079 24.8148 210.86 24.0498C211.658 23.2686 212.586 22.6663 213.644 22.2432C214.718 21.8037 215.873 21.584 217.11 21.584C218.819 21.584 220.3 21.9502 221.554 22.6826C222.823 23.3988 223.808 24.4079 224.508 25.71C225.224 26.9958 225.582 28.5094 225.582 30.251V48H219.503V31.7402C219.503 30.666 219.324 29.7546 218.966 29.0059C218.608 28.2572 218.087 27.6875 217.403 27.2969C216.72 26.9062 215.873 26.7109 214.864 26.7109C213.888 26.7109 213.025 26.9388 212.276 27.3945C211.544 27.834 210.966 28.4525 210.543 29.25C210.136 30.0475 209.933 30.9671 209.933 32.0088V48H204.024V31.4229C204.024 30.4463 203.837 29.6081 203.463 28.9082C203.089 28.2083 202.56 27.6712 201.876 27.2969C201.192 26.9062 200.379 26.7109 199.435 26.7109C198.458 26.7109 197.595 26.9469 196.847 27.4189C196.098 27.891 195.504 28.5339 195.064 29.3477C194.641 30.1615 194.43 31.0973 194.43 32.1553V48H188.375ZM241.842 48.5127C239.254 48.5127 237.024 47.9674 235.152 46.877C233.297 45.7865 231.873 44.2402 230.88 42.2383C229.887 40.2363 229.391 37.8682 229.391 35.1338V35.1094C229.391 32.3913 229.887 30.0231 230.88 28.0049C231.889 25.9704 233.297 24.3916 235.104 23.2686C236.926 22.1455 239.075 21.584 241.549 21.584C244.007 21.584 246.131 22.1292 247.921 23.2197C249.728 24.2939 251.111 25.8076 252.071 27.7607C253.048 29.7139 253.536 31.9925 253.536 34.5967V36.5498H232.394V32.4971H250.631L247.701 36.2812V33.9375C247.701 32.2448 247.441 30.8369 246.92 29.7139C246.399 28.5908 245.683 27.7526 244.771 27.1992C243.86 26.6296 242.81 26.3447 241.622 26.3447C240.418 26.3447 239.343 26.6377 238.399 27.2236C237.472 27.7933 236.739 28.6478 236.202 29.7871C235.681 30.9264 235.421 32.3099 235.421 33.9375V36.2812C235.421 37.86 235.681 39.2109 236.202 40.334C236.739 41.4408 237.496 42.2952 238.473 42.8975C239.449 43.4834 240.613 43.7764 241.964 43.7764C242.973 43.7764 243.86 43.6217 244.625 43.3125C245.39 42.987 246.017 42.5719 246.505 42.0674C247.009 41.5628 247.359 41.0176 247.555 40.4316L247.604 40.2607H253.268L253.219 40.5293C253.007 41.5221 252.617 42.4987 252.047 43.459C251.477 44.403 250.712 45.2575 249.752 46.0225C248.792 46.7874 247.652 47.3978 246.334 47.8535C245.016 48.293 243.518 48.5127 241.842 48.5127Z" fill="black"/>
<path d="M251 54C252.105 54 253 53.1046 253 52C253 50.8954 252.105 50 251 50V52V54ZM91 52V54H251V52V50H91V52Z" fill="#0F3758"/>
<path fill-rule="evenodd" clip-rule="evenodd" d="M109.033 21.5145C114.45 21.5195 119.247 24.6215 122.58 29.3215C125.922 34.0333 127.952 40.52 127.989 47.9545C127.989 48.1322 127.988 48.3096 127.986 48.4867L121.986 48.516C121.988 48.3391 121.99 48.1617 121.989 47.9838C121.957 41.5836 120.207 36.3462 117.686 32.7917C115.157 29.2253 112.008 27.5174 109.028 27.5146C106.103 27.5119 103.122 29.1974 100.751 32.7758C98.379 36.3561 96.7856 41.6449 96.817 48.091C96.8179 48.2743 96.821 48.4569 96.8246 48.6389L90.8247 48.6682C90.8214 48.4859 90.818 48.3033 90.8171 48.1203C90.781 40.7315 92.5971 34.2204 95.7495 29.4622C98.9032 24.7024 103.562 21.5096 109.033 21.5145Z" fill="#0F3758"/>
</svg>
