<svg width="42" height="42" viewBox="0 0 42 42" fill="none" xmlns="http://www.w3.org/2000/svg">
<path d="M0 5C0 2.23858 2.23858 0 5 0H37C39.7614 0 42 2.23858 42 5V37C42 39.7614 39.7614 42 37 42H5C2.23858 42 0 39.7614 0 37V5Z" fill="#0F3758"/>
<path fill-rule="evenodd" clip-rule="evenodd" d="M19.8269 7.08714C25.1345 7.09333 29.7832 10.2422 32.9855 14.9224C36.2004 19.6213 38.1494 26.0801 38.1855 33.4773C38.1864 33.6531 38.1847 33.8286 38.1832 34.0037L32.1833 34.033C32.1852 33.8581 32.1864 33.6826 32.1856 33.5066C32.1543 27.0999 30.462 21.8608 28.0332 18.3109C25.5917 14.7426 22.5928 13.0906 19.8201 13.0872C17.1043 13.0843 14.2664 14.7084 11.9772 18.2906C9.69211 21.8669 8.15429 27.1574 8.18578 33.6082C8.18666 33.7894 8.18886 33.9701 8.19233 34.1501L2.1924 34.1794C2.18928 33.9992 2.18673 33.8185 2.18585 33.6375C2.14996 26.2843 3.89094 19.8019 6.92136 15.0594C9.94774 10.3235 14.4625 7.08115 19.8269 7.08714Z" fill="#D9D9D9"/>
</svg>
