<svg width="42" height="42" viewBox="0 0 42 42" fill="none" xmlns="http://www.w3.org/2000/svg">
<g clip-path="url(#clip0_11_81)">
<path d="M31.5 0H10.5C4.70101 0 0 4.70101 0 10.5V31.5C0 37.299 4.70101 42 10.5 42H31.5C37.299 42 42 37.299 42 31.5V10.5C42 4.70101 37.299 0 31.5 0Z" fill="url(#paint0_linear_11_81)"/>
<path d="M12.6 10.5H18.9V27.3H31.5V33.6H12.6V10.5Z" fill="white"/>
<path opacity="0.7" d="M26.25 16.275C26.25 15.4051 25.5449 14.7 24.675 14.7C23.8052 14.7 23.1 15.4051 23.1 16.275V21.525C23.1 22.3948 23.8052 23.1 24.675 23.1C25.5449 23.1 26.25 22.3948 26.25 21.525V16.275Z" fill="white"/>
<path opacity="0.5" d="M30.45 20.475C30.45 19.6051 29.7449 18.9 28.875 18.9C28.0052 18.9 27.3 19.6051 27.3 20.475V21.525C27.3 22.3948 28.0052 23.1 28.875 23.1C29.7449 23.1 30.45 22.3948 30.45 21.525V20.475Z" fill="white"/>
<g clip-path="url(#clip1_11_81)">
<mask id="mask0_11_81" style="mask-type:luminance" maskUnits="userSpaceOnUse" x="-8" y="7" width="42" height="42">
<path d="M23.5 7H2.5C-3.29899 7 -8 11.701 -8 17.5V38.5C-8 44.299 -3.29899 49 2.5 49H23.5C29.299 49 34 44.299 34 38.5V17.5C34 11.701 29.299 7 23.5 7Z" fill="white"/>
</mask>
<g mask="url(#mask0_11_81)">
<g opacity="0.26" filter="url(#filter0_f_11_81)">
<path d="M44 85C58.3594 85 70 73.3594 70 59C70 44.6406 58.3594 33 44 33C29.6406 33 18 44.6406 18 59C18 73.3594 29.6406 85 44 85Z" fill="#7C3AED"/>
</g>
<g opacity="0.18" filter="url(#filter1_f_11_81)">
<path d="M38 69C46.8366 69 54 61.8366 54 53C54 44.1634 46.8366 37 38 37C29.1634 37 22 44.1634 22 53C22 61.8366 29.1634 69 38 69Z" fill="#8B5CF6"/>
</g>
</g>
</g>
</g>
<defs>
<filter id="filter0_f_11_81" x="-2" y="13" width="92" height="92" filterUnits="userSpaceOnUse" color-interpolation-filters="sRGB">
<feFlood flood-opacity="0" result="BackgroundImageFix"/>
<feBlend mode="normal" in="SourceGraphic" in2="BackgroundImageFix" result="shape"/>
<feGaussianBlur stdDeviation="10" result="effect1_foregroundBlur_11_81"/>
</filter>
<filter id="filter1_f_11_81" x="2" y="17" width="72" height="72" filterUnits="userSpaceOnUse" color-interpolation-filters="sRGB">
<feFlood flood-opacity="0" result="BackgroundImageFix"/>
<feBlend mode="normal" in="SourceGraphic" in2="BackgroundImageFix" result="shape"/>
<feGaussianBlur stdDeviation="10" result="effect1_foregroundBlur_11_81"/>
</filter>
<linearGradient id="paint0_linear_11_81" x1="0" y1="0" x2="4200" y2="4200" gradientUnits="userSpaceOnUse">
<stop stop-color="#6366F1"/>
<stop offset="0.5" stop-color="#7C3AED"/>
<stop offset="1" stop-color="#8B5CF6"/>
</linearGradient>
<clipPath id="clip0_11_81">
<rect width="42" height="42" fill="white"/>
</clipPath>
<clipPath id="clip1_11_81">
<rect width="42" height="42" fill="white" transform="translate(-8 7)"/>
</clipPath>
</defs>
</svg>
