<svg width="152" height="50" viewBox="0 0 152 50" fill="none" xmlns="http://www.w3.org/2000/svg">
<rect width="152" height="50" rx="10" fill="#150F2E"/>
<path d="M57.3037 19V8.43115H59.1934V17.4106H64.0347V19H57.3037ZM69.2785 19.1611C68.4826 19.1611 67.7966 18.9951 67.2204 18.6631C66.6442 18.3262 66.1999 17.8477 65.8874 17.2275C65.5798 16.6074 65.426 15.8652 65.426 15.001V14.9863C65.426 14.1318 65.5822 13.3945 65.8947 12.7744C66.2072 12.1494 66.6491 11.6709 67.2204 11.3389C67.7966 11.0068 68.4826 10.8408 69.2785 10.8408C70.0744 10.8408 70.758 11.0068 71.3293 11.3389C71.9055 11.6709 72.3498 12.147 72.6623 12.7671C72.9748 13.3872 73.1311 14.127 73.1311 14.9863V15.001C73.1311 15.8652 72.9748 16.6074 72.6623 17.2275C72.3547 17.8477 71.9128 18.3262 71.3366 18.6631C70.7653 18.9951 70.0793 19.1611 69.2785 19.1611ZM69.2785 17.6816C69.6984 17.6816 70.0549 17.5767 70.3479 17.3667C70.6457 17.1519 70.8728 16.8467 71.029 16.4512C71.1853 16.0508 71.2634 15.5698 71.2634 15.0083V14.9937C71.2634 14.4272 71.1853 13.9463 71.029 13.5508C70.8728 13.1504 70.6457 12.8452 70.3479 12.6353C70.0549 12.4204 69.6984 12.313 69.2785 12.313C68.8586 12.313 68.4997 12.4204 68.2019 12.6353C67.904 12.8452 67.677 13.1504 67.5207 13.5508C67.3645 13.9463 67.2863 14.4272 67.2863 14.9937V15.0083C67.2863 15.5698 67.3645 16.0508 67.5207 16.4512C67.677 16.8516 67.9016 17.1567 68.1945 17.3667C68.4924 17.5767 68.8537 17.6816 69.2785 17.6816ZM77.4447 19.1318C76.9418 19.1318 76.4901 19.0342 76.0897 18.8389C75.6942 18.6436 75.3817 18.3677 75.1522 18.0112C74.9276 17.6499 74.8153 17.2251 74.8153 16.7368V16.7222C74.8153 16.2485 74.9325 15.8408 75.1669 15.499C75.4013 15.1523 75.7455 14.8813 76.1996 14.686C76.6537 14.4907 77.2055 14.376 77.8549 14.3418L80.8139 14.1587V15.3599L78.1112 15.5356C77.5985 15.5649 77.2201 15.6724 76.976 15.8579C76.7318 16.0435 76.6098 16.3022 76.6098 16.6343V16.6489C76.6098 16.9907 76.7392 17.2568 76.9979 17.4473C77.2616 17.6377 77.5961 17.7329 78.0014 17.7329C78.3676 17.7329 78.6947 17.6597 78.9828 17.5132C79.2709 17.3667 79.4979 17.1689 79.664 16.9199C79.83 16.666 79.913 16.3804 79.913 16.063V13.5288C79.913 13.1284 79.786 12.8232 79.5321 12.6133C79.2782 12.3984 78.9022 12.291 78.4042 12.291C77.9892 12.291 77.6498 12.3643 77.3861 12.5107C77.1225 12.6523 76.9442 12.855 76.8515 13.1187L76.8441 13.1479H75.1229L75.1303 13.082C75.1889 12.6328 75.3646 12.2397 75.6576 11.9028C75.9506 11.5659 76.3388 11.3047 76.8222 11.1191C77.3056 10.9336 77.8622 10.8408 78.4921 10.8408C79.1854 10.8408 79.7714 10.9482 80.2499 11.1631C80.7284 11.373 81.0922 11.6807 81.3412 12.0859C81.5902 12.4863 81.7147 12.9673 81.7147 13.5288V19H79.913V17.9014H79.7885C79.642 18.1553 79.4516 18.375 79.2172 18.5605C78.9877 18.7461 78.724 18.8877 78.4262 18.9854C78.1283 19.083 77.8012 19.1318 77.4447 19.1318ZM84.2047 19V10.9946H86.0284V12.2251H86.1529C86.3434 11.7905 86.6314 11.4512 87.0172 11.207C87.4029 10.9629 87.8839 10.8408 88.4601 10.8408C89.3536 10.8408 90.0372 11.0996 90.5108 11.6172C90.9845 12.1348 91.2213 12.8696 91.2213 13.8218V19H89.3976V14.2466C89.3976 13.6216 89.2657 13.1528 89.0021 12.8403C88.7433 12.5278 88.338 12.3716 87.7862 12.3716C87.4249 12.3716 87.1124 12.4521 86.8487 12.6133C86.5851 12.7744 86.3824 13.0015 86.2408 13.2944C86.0992 13.5874 86.0284 13.9341 86.0284 14.3345V19H84.2047ZM95.5789 19L92.7298 10.9946H94.678L96.5237 17.2202H96.6556L98.4939 10.9946H100.413L97.5711 19H95.5789ZM105.356 19.1611C104.561 19.1611 103.877 18.9927 103.306 18.6558C102.739 18.3188 102.302 17.8403 101.995 17.2202C101.687 16.6001 101.533 15.8652 101.533 15.0156V15.0083C101.533 14.1685 101.685 13.436 101.987 12.811C102.295 12.186 102.729 11.7026 103.291 11.3608C103.853 11.0142 104.512 10.8408 105.269 10.8408C106.03 10.8408 106.685 11.0093 107.231 11.3462C107.783 11.6782 108.208 12.1445 108.506 12.7451C108.804 13.3457 108.953 14.0488 108.953 14.8545V15.4551H102.449V14.2319H108.059L107.195 15.3745V14.6494C107.195 14.1172 107.114 13.6753 106.953 13.3237C106.792 12.9722 106.567 12.7085 106.279 12.5327C105.996 12.3569 105.667 12.269 105.291 12.269C104.915 12.269 104.58 12.3618 104.287 12.5474C103.999 12.728 103.77 12.9966 103.599 13.353C103.433 13.7046 103.35 14.1367 103.35 14.6494V15.3818C103.35 15.875 103.433 16.2974 103.599 16.6489C103.765 16.9956 103.999 17.2642 104.302 17.4546C104.609 17.6401 104.973 17.7329 105.393 17.7329C105.72 17.7329 106.001 17.6865 106.235 17.5938C106.475 17.4961 106.667 17.3813 106.814 17.2495C106.96 17.1128 107.063 16.9834 107.122 16.8613L107.144 16.8101H108.872L108.857 16.876C108.794 17.1348 108.677 17.3984 108.506 17.667C108.34 17.9307 108.113 18.1772 107.825 18.4067C107.542 18.6313 107.195 18.8145 106.785 18.9561C106.375 19.0928 105.898 19.1611 105.356 19.1611ZM111.076 19V10.9946H112.9V12.2251H113.025C113.161 11.7954 113.405 11.4609 113.757 11.2217C114.113 10.9824 114.555 10.8628 115.083 10.8628C115.219 10.8628 115.354 10.8726 115.486 10.8921C115.622 10.9067 115.735 10.9263 115.822 10.9507V12.584C115.676 12.5498 115.527 12.5254 115.376 12.5107C115.229 12.4912 115.075 12.4814 114.914 12.4814C114.509 12.4814 114.155 12.5571 113.852 12.7085C113.55 12.8599 113.315 13.0771 113.149 13.3604C112.983 13.6387 112.9 13.9683 112.9 14.3491V19H111.076ZM120.451 19.1611C119.772 19.1611 119.186 19.0659 118.693 18.8755C118.205 18.6802 117.819 18.4116 117.536 18.0698C117.253 17.7231 117.084 17.3228 117.031 16.8687V16.854H118.84L118.847 16.8687C118.945 17.147 119.128 17.374 119.396 17.5498C119.665 17.7256 120.026 17.8135 120.48 17.8135C120.783 17.8135 121.049 17.772 121.279 17.689C121.508 17.6011 121.689 17.4814 121.821 17.3301C121.953 17.1787 122.018 17.0029 122.018 16.8027V16.7881C122.018 16.5537 121.923 16.3584 121.733 16.2021C121.542 16.041 121.227 15.9116 120.788 15.814L119.492 15.521C118.984 15.4087 118.564 15.2524 118.232 15.0522C117.9 14.8521 117.651 14.6055 117.485 14.3125C117.324 14.0195 117.243 13.6777 117.243 13.2871V13.2798C117.243 12.7964 117.377 12.3716 117.646 12.0054C117.919 11.6392 118.298 11.3535 118.781 11.1484C119.265 10.9434 119.821 10.8408 120.451 10.8408C121.1 10.8408 121.66 10.9385 122.128 11.1338C122.597 11.3291 122.963 11.5977 123.227 11.9395C123.491 12.2812 123.642 12.6694 123.681 13.104V13.1187H121.967L121.96 13.0967C121.892 12.8428 121.728 12.6279 121.469 12.4521C121.215 12.2715 120.873 12.1812 120.444 12.1812C120.175 12.1812 119.933 12.2227 119.719 12.3057C119.509 12.3887 119.343 12.5059 119.221 12.6572C119.103 12.8037 119.045 12.9771 119.045 13.1772V13.1846C119.045 13.3408 119.084 13.4775 119.162 13.5947C119.245 13.7119 119.374 13.8145 119.55 13.9023C119.726 13.9902 119.958 14.0684 120.246 14.1367L121.542 14.4224C122.329 14.5981 122.91 14.8594 123.286 15.2061C123.662 15.5527 123.85 16.019 123.85 16.605V16.6196C123.85 17.1274 123.703 17.5718 123.41 17.9526C123.117 18.3335 122.714 18.6313 122.202 18.8462C121.689 19.0562 121.105 19.1611 120.451 19.1611ZM129.416 19.1611C128.62 19.1611 127.936 18.9927 127.365 18.6558C126.798 18.3188 126.361 17.8403 126.054 17.2202C125.746 16.6001 125.592 15.8652 125.592 15.0156V15.0083C125.592 14.1685 125.744 13.436 126.046 12.811C126.354 12.186 126.789 11.7026 127.35 11.3608C127.912 11.0142 128.571 10.8408 129.328 10.8408C130.089 10.8408 130.744 11.0093 131.291 11.3462C131.842 11.6782 132.267 12.1445 132.565 12.7451C132.863 13.3457 133.012 14.0488 133.012 14.8545V15.4551H126.508V14.2319H132.118L131.254 15.3745V14.6494C131.254 14.1172 131.173 13.6753 131.012 13.3237C130.851 12.9722 130.627 12.7085 130.338 12.5327C130.055 12.3569 129.726 12.269 129.35 12.269C128.974 12.269 128.639 12.3618 128.346 12.5474C128.058 12.728 127.829 12.9966 127.658 13.353C127.492 13.7046 127.409 14.1367 127.409 14.6494V15.3818C127.409 15.875 127.492 16.2974 127.658 16.6489C127.824 16.9956 128.058 17.2642 128.361 17.4546C128.669 17.6401 129.032 17.7329 129.452 17.7329C129.779 17.7329 130.06 17.6865 130.295 17.5938C130.534 17.4961 130.727 17.3813 130.873 17.2495C131.02 17.1128 131.122 16.9834 131.181 16.8613L131.203 16.8101H132.931L132.917 16.876C132.853 17.1348 132.736 17.3984 132.565 17.667C132.399 17.9307 132.172 18.1772 131.884 18.4067C131.601 18.6313 131.254 18.8145 130.844 18.9561C130.434 19.0928 129.958 19.1611 129.416 19.1611Z" fill="white"/>
<path opacity="0.95" d="M56.7227 31V25.3633H58.5781C59.151 25.3633 59.6354 25.4766 60.0312 25.7031C60.4297 25.9297 60.7318 26.2526 60.9375 26.6719C61.1458 27.0911 61.25 27.5924 61.25 28.1758V28.1836C61.25 28.7669 61.1458 29.2695 60.9375 29.6914C60.7318 30.1107 60.431 30.4336 60.0352 30.6602C59.6393 30.8867 59.1536 31 58.5781 31H56.7227ZM57.2539 30.5195H58.5469C59.0078 30.5195 59.3984 30.4271 59.7188 30.2422C60.0417 30.0547 60.2878 29.7865 60.457 29.4375C60.6263 29.0885 60.7109 28.6719 60.7109 28.1875V28.1797C60.7109 27.6953 60.625 27.2786 60.4531 26.9297C60.2839 26.5807 60.0378 26.3125 59.7148 26.125C59.3945 25.9375 59.0052 25.8438 58.5469 25.8438H57.2539V30.5195ZM62.9136 31V26.793H63.4292V31H62.9136ZM63.1714 25.918C63.0698 25.918 62.9813 25.8815 62.9058 25.8086C62.8303 25.7331 62.7925 25.6432 62.7925 25.5391C62.7925 25.4349 62.8303 25.3464 62.9058 25.2734C62.9813 25.1979 63.0698 25.1602 63.1714 25.1602C63.2782 25.1602 63.368 25.1979 63.4409 25.2734C63.5139 25.3464 63.5503 25.4349 63.5503 25.5391C63.5503 25.6432 63.5139 25.7331 63.4409 25.8086C63.368 25.8815 63.2782 25.918 63.1714 25.918ZM66.667 31.0703C66.3623 31.0703 66.0915 31.0247 65.8545 30.9336C65.6176 30.8398 65.4274 30.7096 65.2842 30.543C65.141 30.3737 65.0551 30.1745 65.0264 29.9453H65.5538C65.611 30.1562 65.7373 30.3242 65.9327 30.4492C66.128 30.5742 66.378 30.6367 66.6827 30.6367C66.8884 30.6367 67.072 30.6042 67.2334 30.5391C67.3975 30.474 67.5264 30.3841 67.6202 30.2695C67.7165 30.1549 67.7647 30.0247 67.7647 29.8789V29.8711C67.7647 29.6888 67.6957 29.5404 67.5577 29.4258C67.4196 29.3112 67.197 29.2174 66.8897 29.1445L66.3077 29.0078C66.0472 28.9453 65.8311 28.8672 65.6592 28.7734C65.4899 28.6771 65.3636 28.5586 65.2803 28.418C65.1996 28.2747 65.1592 28.1055 65.1592 27.9102V27.9062C65.1592 27.6797 65.2256 27.4766 65.3584 27.2969C65.4939 27.1172 65.6761 26.9766 65.9053 26.875C66.1371 26.7734 66.3936 26.7227 66.6748 26.7227C66.9561 26.7227 67.2074 26.7669 67.4288 26.8555C67.6501 26.944 67.8285 27.0703 67.9639 27.2344C68.1019 27.3984 68.1879 27.5911 68.2217 27.8125H67.7139C67.6696 27.6172 67.5551 27.4596 67.3702 27.3398C67.1853 27.2174 66.9522 27.1562 66.6709 27.1562C66.4886 27.1562 66.322 27.1875 66.1709 27.25C66.0225 27.3125 65.904 27.3984 65.8155 27.5078C65.7269 27.6172 65.6827 27.7422 65.6827 27.8828V27.8906C65.6827 28.0052 65.7113 28.1055 65.7686 28.1914C65.8285 28.2747 65.9183 28.3477 66.0381 28.4102C66.1605 28.4701 66.3155 28.5221 66.503 28.5664L67.0811 28.707C67.4873 28.8034 67.7907 28.9401 67.9913 29.1172C68.1918 29.2917 68.292 29.5299 68.292 29.832V29.8398C68.292 30.082 68.2191 30.2956 68.0733 30.4805C67.9301 30.6654 67.736 30.8099 67.4913 30.9141C67.2491 31.0182 66.9743 31.0703 66.667 31.0703ZM71.5533 31.0703C71.1653 31.0703 70.8293 30.9818 70.5455 30.8047C70.2616 30.625 70.0416 30.3711 69.8853 30.043C69.7317 29.7148 69.6548 29.3294 69.6548 28.8867V28.8789C69.6548 28.4388 69.7317 28.0586 69.8853 27.7383C70.039 27.4154 70.2577 27.1654 70.5416 26.9883C70.828 26.8112 71.164 26.7227 71.5494 26.7227C71.8697 26.7227 72.1509 26.7799 72.3931 26.8945C72.6353 27.0065 72.8306 27.1602 72.9791 27.3555C73.1301 27.5508 73.2278 27.7708 73.272 28.0156V28.0312H72.7603V28.0234C72.6978 27.7812 72.5611 27.5807 72.3502 27.4219C72.1392 27.2604 71.8723 27.1797 71.5494 27.1797C71.2707 27.1797 71.0285 27.25 70.8228 27.3906C70.6171 27.5286 70.4582 27.7253 70.3462 27.9805C70.2343 28.2331 70.1783 28.5326 70.1783 28.8789V28.8867C70.1783 29.2357 70.2343 29.5404 70.3462 29.8008C70.4608 30.0586 70.621 30.2591 70.8267 30.4023C71.0324 30.543 71.2733 30.6133 71.5494 30.6133C71.8619 30.6133 72.121 30.543 72.3267 30.4023C72.5351 30.2617 72.677 30.0638 72.7525 29.8086L72.7603 29.7891L73.2681 29.7852L73.2642 29.8203C73.2095 30.0651 73.108 30.2826 72.9595 30.4727C72.8137 30.6602 72.6223 30.8073 72.3853 30.9141C72.1509 31.0182 71.8736 31.0703 71.5533 31.0703ZM76.5216 31.0703C76.1309 31.0703 75.7924 30.9831 75.5059 30.8086C75.2195 30.6315 74.9981 30.3802 74.8419 30.0547C74.6882 29.7292 74.6114 29.3438 74.6114 28.8984V28.8906C74.6114 28.4453 74.6882 28.0599 74.8419 27.7344C74.9981 27.4089 75.2195 27.1589 75.5059 26.9844C75.7924 26.8099 76.1309 26.7227 76.5216 26.7227C76.9148 26.7227 77.2533 26.8099 77.5372 26.9844C77.8236 27.1589 78.0437 27.4089 78.1973 27.7344C78.3536 28.0599 78.4317 28.4453 78.4317 28.8906V28.8984C78.4317 29.3438 78.3536 29.7292 78.1973 30.0547C78.0437 30.3802 77.8236 30.6315 77.5372 30.8086C77.2533 30.9831 76.9148 31.0703 76.5216 31.0703ZM76.5216 30.6133C76.8106 30.6133 77.058 30.5443 77.2638 30.4062C77.4721 30.2682 77.6309 30.0716 77.7403 29.8164C77.8523 29.5586 77.9083 29.2526 77.9083 28.8984V28.8906C77.9083 28.5365 77.8523 28.2318 77.7403 27.9766C77.6309 27.7188 77.4721 27.5221 77.2638 27.3867C77.058 27.2487 76.8106 27.1797 76.5216 27.1797C76.2325 27.1797 75.9838 27.2487 75.7755 27.3867C75.5697 27.5221 75.4109 27.7174 75.2989 27.9727C75.1895 28.2279 75.1348 28.5339 75.1348 28.8906V28.8984C75.1348 29.2526 75.1895 29.5586 75.2989 29.8164C75.4109 30.0716 75.5697 30.2682 75.7755 30.4062C75.9838 30.5443 76.2325 30.6133 76.5216 30.6133ZM81.0523 31L79.482 26.793H80.0289L81.3023 30.4453H81.3492L82.6227 26.793H83.1656L81.5953 31H81.0523ZM86.1261 31.0703C85.7329 31.0703 85.393 30.9818 85.1066 30.8047C84.8227 30.6276 84.604 30.3776 84.4503 30.0547C84.2967 29.7318 84.2198 29.3503 84.2198 28.9102V28.9023C84.2198 28.4648 84.2967 28.0833 84.4503 27.7578C84.604 27.4297 84.8201 27.1758 85.0987 26.9961C85.38 26.8138 85.7081 26.7227 86.0831 26.7227C86.4607 26.7227 86.7849 26.8112 87.0558 26.9883C87.3292 27.1628 87.5389 27.4076 87.6847 27.7227C87.8331 28.0352 87.9073 28.3984 87.9073 28.8125V29.0312H84.4855V28.6094H87.6456L87.3917 28.9883V28.793C87.3917 28.4414 87.3357 28.1471 87.2237 27.9102C87.1144 27.6706 86.9607 27.4896 86.7628 27.3672C86.5675 27.2448 86.3409 27.1836 86.0831 27.1836C85.8227 27.1836 85.5922 27.2461 85.3917 27.3711C85.1912 27.4961 85.0323 27.6797 84.9152 27.9219C84.8006 28.1615 84.7433 28.4518 84.7433 28.793V28.9883C84.7433 29.3242 84.8006 29.6133 84.9152 29.8555C85.0297 30.0977 85.1912 30.2839 85.3995 30.4141C85.6079 30.5443 85.854 30.6094 86.1378 30.6094C86.3409 30.6094 86.5219 30.5807 86.6808 30.5234C86.8422 30.4661 86.9764 30.3906 87.0831 30.2969C87.1899 30.2005 87.2667 30.099 87.3136 29.9922L87.3253 29.9609H87.8448L87.8331 29.9922C87.7915 30.1354 87.7224 30.2721 87.6261 30.4023C87.5323 30.5299 87.4126 30.6445 87.2667 30.7461C87.1209 30.8451 86.9516 30.9245 86.7589 30.9844C86.5688 31.0417 86.3579 31.0703 86.1261 31.0703ZM89.4967 31V26.793H90.0123V27.4844H90.0592C90.1426 27.2448 90.2832 27.0586 90.4811 26.9258C90.679 26.7904 90.9199 26.7227 91.2038 26.7227C91.2819 26.7227 91.3548 26.7266 91.4225 26.7344C91.4902 26.7422 91.5488 26.7513 91.5983 26.7617V27.2656C91.5254 27.2474 91.4524 27.2344 91.3795 27.2266C91.3092 27.2161 91.2324 27.2109 91.1491 27.2109C90.9303 27.2109 90.735 27.2617 90.5631 27.3633C90.3939 27.4622 90.2597 27.599 90.1608 27.7734C90.0618 27.9479 90.0123 28.1484 90.0123 28.375V31H89.4967ZM92.9338 31.0312C92.8218 31.0312 92.7254 30.9909 92.6447 30.9102C92.564 30.8294 92.5236 30.7331 92.5236 30.6211C92.5236 30.5065 92.564 30.4102 92.6447 30.332C92.7254 30.2513 92.8218 30.2109 92.9338 30.2109C93.0509 30.2109 93.1486 30.2513 93.2267 30.332C93.3074 30.4102 93.3478 30.5065 93.3478 30.6211C93.3478 30.7331 93.3074 30.8294 93.2267 30.9102C93.1486 30.9909 93.0509 31.0312 92.9338 31.0312ZM100.134 31.1172C99.7539 31.1172 99.4101 31.0482 99.1028 30.9102C98.7955 30.7721 98.5325 30.5742 98.3138 30.3164C98.095 30.0586 97.9257 29.7487 97.8059 29.3867C97.6888 29.0247 97.6302 28.6198 97.6302 28.1719V28.1641C97.6302 27.5729 97.733 27.0599 97.9388 26.625C98.1471 26.1875 98.4388 25.849 98.8138 25.6094C99.1914 25.3672 99.6315 25.2461 100.134 25.2461C100.535 25.2461 100.894 25.3177 101.212 25.4609C101.533 25.6016 101.797 25.8008 102.005 26.0586C102.216 26.3138 102.358 26.6172 102.431 26.9688L102.439 27.0078H101.904L101.892 26.9688C101.777 26.5703 101.566 26.2656 101.259 26.0547C100.954 25.8438 100.579 25.7383 100.134 25.7383C99.7382 25.7383 99.3932 25.8385 99.0989 26.0391C98.8046 26.237 98.5768 26.5169 98.4153 26.8789C98.2539 27.2409 98.1731 27.6693 98.1731 28.1641V28.1719C98.1731 28.5469 98.2187 28.8854 98.3098 29.1875C98.401 29.4896 98.5325 29.7474 98.7044 29.9609C98.8763 30.1745 99.0833 30.3385 99.3255 30.4531C99.5677 30.5677 99.8385 30.625 100.138 30.625C100.503 30.625 100.822 30.5482 101.095 30.3945C101.368 30.2383 101.581 30.0221 101.732 29.7461C101.883 29.4701 101.958 29.1497 101.958 28.7852V28.6602H100.208V28.1914H102.486V28.7422C102.486 29.0964 102.43 29.4193 102.318 29.7109C102.208 30.0026 102.049 30.2539 101.841 30.4648C101.635 30.6732 101.388 30.8346 101.099 30.9492C100.812 31.0612 100.491 31.1172 100.134 31.1172ZM105.772 31.0703C105.379 31.0703 105.039 30.9818 104.753 30.8047C104.469 30.6276 104.25 30.3776 104.097 30.0547C103.943 29.7318 103.866 29.3503 103.866 28.9102V28.9023C103.866 28.4648 103.943 28.0833 104.097 27.7578C104.25 27.4297 104.466 27.1758 104.745 26.9961C105.026 26.8138 105.354 26.7227 105.729 26.7227C106.107 26.7227 106.431 26.8112 106.702 26.9883C106.975 27.1628 107.185 27.4076 107.331 27.7227C107.479 28.0352 107.554 28.3984 107.554 28.8125V29.0312H104.132V28.6094H107.292L107.038 28.9883V28.793C107.038 28.4414 106.982 28.1471 106.87 27.9102C106.761 27.6706 106.607 27.4896 106.409 27.3672C106.214 27.2448 105.987 27.1836 105.729 27.1836C105.469 27.1836 105.238 27.2461 105.038 27.3711C104.837 27.4961 104.679 27.6797 104.561 27.9219C104.447 28.1615 104.39 28.4518 104.39 28.793V28.9883C104.39 29.3242 104.447 29.6133 104.561 29.8555C104.676 30.0977 104.837 30.2839 105.046 30.4141C105.254 30.5443 105.5 30.6094 105.784 30.6094C105.987 30.6094 106.168 30.5807 106.327 30.5234C106.488 30.4661 106.623 30.3906 106.729 30.2969C106.836 30.2005 106.913 30.099 106.96 29.9922L106.972 29.9609H107.491L107.479 29.9922C107.438 30.1354 107.369 30.2721 107.272 30.4023C107.179 30.5299 107.059 30.6445 106.913 30.7461C106.767 30.8451 106.598 30.9245 106.405 30.9844C106.215 31.0417 106.004 31.0703 105.772 31.0703ZM110.45 31.0273C110.051 31.0273 109.762 30.944 109.583 30.7773C109.405 30.6107 109.317 30.3359 109.317 29.9531V27.2227H108.641V26.793H109.317V25.6992H109.848V26.793H110.813V27.2227H109.848V29.8359C109.848 30.0964 109.899 30.2839 110 30.3984C110.102 30.513 110.271 30.5703 110.508 30.5703C110.568 30.5703 110.62 30.569 110.665 30.5664C110.709 30.5638 110.758 30.5599 110.813 30.5547V30.9961C110.753 31.0039 110.693 31.0104 110.633 31.0156C110.576 31.0234 110.515 31.0273 110.45 31.0273ZM114.91 31V25.3633H118.254V25.8438H115.441V27.9648H118.027V28.4375H115.441V31H114.91ZM121.197 31.0703C120.884 31.0703 120.617 31.0091 120.396 30.8867C120.174 30.7643 120.006 30.5872 119.892 30.3555C119.777 30.1237 119.72 29.8477 119.72 29.5273V26.793H120.236V29.3984C120.236 29.7917 120.325 30.0924 120.505 30.3008C120.687 30.5091 120.96 30.6133 121.322 30.6133C121.517 30.6133 121.691 30.582 121.845 30.5195C122.001 30.457 122.134 30.3685 122.243 30.2539C122.353 30.1367 122.435 29.9974 122.49 29.8359C122.547 29.6745 122.575 29.4935 122.575 29.293V26.793H123.091V31H122.575V30.2656H122.529C122.461 30.4323 122.365 30.5768 122.24 30.6992C122.115 30.819 121.963 30.9115 121.786 30.9766C121.612 31.0391 121.415 31.0703 121.197 31.0703ZM124.811 31V26.793H125.327V27.5312H125.374C125.486 27.276 125.654 27.0781 125.878 26.9375C126.104 26.7943 126.38 26.7227 126.706 26.7227C127.177 26.7227 127.541 26.8581 127.796 27.1289C128.054 27.3971 128.183 27.7747 128.183 28.2617V31H127.671V28.3906C127.671 27.9922 127.578 27.6914 127.393 27.4883C127.211 27.2826 126.938 27.1797 126.573 27.1797C126.326 27.1797 126.108 27.2344 125.921 27.3438C125.733 27.4531 125.587 27.6068 125.483 27.8047C125.379 28.0026 125.327 28.2344 125.327 28.5V31H124.811ZM131.434 31.0703C131.08 31.0703 130.769 30.9805 130.5 30.8008C130.235 30.6185 130.028 30.3646 129.879 30.0391C129.731 29.7109 129.657 29.332 129.657 28.9023V28.8945C129.657 28.4596 129.731 28.0794 129.879 27.7539C130.028 27.4284 130.235 27.1758 130.5 26.9961C130.769 26.8138 131.08 26.7227 131.434 26.7227C131.648 26.7227 131.847 26.7591 132.032 26.832C132.219 26.9049 132.383 27.0078 132.524 27.1406C132.665 27.2734 132.774 27.4323 132.852 27.6172H132.899V25.1172H133.415V31H132.899V30.1602H132.852C132.769 30.3477 132.657 30.5091 132.516 30.6445C132.378 30.7799 132.217 30.8854 132.032 30.9609C131.849 31.0339 131.65 31.0703 131.434 31.0703ZM131.543 30.6133C131.819 30.6133 132.059 30.543 132.262 30.4023C132.468 30.2591 132.627 30.0599 132.739 29.8047C132.853 29.5469 132.911 29.2448 132.911 28.8984V28.8906C132.911 28.5443 132.853 28.2435 132.739 27.9883C132.627 27.7331 132.468 27.5352 132.262 27.3945C132.059 27.2513 131.819 27.1797 131.543 27.1797C131.267 27.1797 131.027 27.25 130.821 27.3906C130.618 27.5312 130.46 27.7292 130.348 27.9844C130.236 28.2396 130.18 28.5417 130.18 28.8906V28.8984C130.18 29.2448 130.236 29.5469 130.348 29.8047C130.46 30.0625 130.618 30.2617 130.821 30.4023C131.027 30.543 131.267 30.6133 131.543 30.6133ZM136.869 31.0703C136.476 31.0703 136.136 30.9818 135.85 30.8047C135.566 30.6276 135.347 30.3776 135.193 30.0547C135.04 29.7318 134.963 29.3503 134.963 28.9102V28.9023C134.963 28.4648 135.04 28.0833 135.193 27.7578C135.347 27.4297 135.563 27.1758 135.842 26.9961C136.123 26.8138 136.451 26.7227 136.826 26.7227C137.204 26.7227 137.528 26.8112 137.799 26.9883C138.072 27.1628 138.282 27.4076 138.428 27.7227C138.576 28.0352 138.65 28.3984 138.65 28.8125V29.0312H135.229V28.6094H138.389L138.135 28.9883V28.793C138.135 28.4414 138.079 28.1471 137.967 27.9102C137.857 27.6706 137.704 27.4896 137.506 27.3672C137.311 27.2448 137.084 27.1836 136.826 27.1836C136.566 27.1836 136.335 27.2461 136.135 27.3711C135.934 27.4961 135.775 27.6797 135.658 27.9219C135.544 28.1615 135.486 28.4518 135.486 28.793V28.9883C135.486 29.3242 135.544 29.6133 135.658 29.8555C135.773 30.0977 135.934 30.2839 136.143 30.4141C136.351 30.5443 136.597 30.6094 136.881 30.6094C137.084 30.6094 137.265 30.5807 137.424 30.5234C137.585 30.4661 137.719 30.3906 137.826 30.2969C137.933 30.2005 138.01 30.099 138.057 29.9922L138.068 29.9609H138.588L138.576 29.9922C138.535 30.1354 138.466 30.2721 138.369 30.4023C138.275 30.5299 138.156 30.6445 138.01 30.7461C137.864 30.8451 137.695 30.9245 137.502 30.9844C137.312 31.0417 137.101 31.0703 136.869 31.0703ZM141.726 31.0703C141.372 31.0703 141.061 30.9805 140.793 30.8008C140.527 30.6185 140.32 30.3646 140.172 30.0391C140.023 29.7109 139.949 29.332 139.949 28.9023V28.8945C139.949 28.4596 140.023 28.0794 140.172 27.7539C140.32 27.4284 140.527 27.1758 140.793 26.9961C141.061 26.8138 141.372 26.7227 141.726 26.7227C141.94 26.7227 142.139 26.7591 142.324 26.832C142.511 26.9049 142.675 27.0078 142.816 27.1406C142.957 27.2734 143.066 27.4323 143.144 27.6172H143.191V25.1172H143.707V31H143.191V30.1602H143.144C143.061 30.3477 142.949 30.5091 142.808 30.6445C142.67 30.7799 142.509 30.8854 142.324 30.9609C142.142 31.0339 141.942 31.0703 141.726 31.0703ZM141.836 30.6133C142.112 30.6133 142.351 30.543 142.554 30.4023C142.76 30.2591 142.919 30.0599 143.031 29.8047C143.146 29.5469 143.203 29.2448 143.203 28.8984V28.8906C143.203 28.5443 143.146 28.2435 143.031 27.9883C142.919 27.7331 142.76 27.5352 142.554 27.3945C142.351 27.2513 142.112 27.1797 141.836 27.1797C141.56 27.1797 141.319 27.25 141.113 27.3906C140.91 27.5312 140.752 27.7292 140.64 27.9844C140.528 28.2396 140.472 28.5417 140.472 28.8906V28.8984C140.472 29.2448 140.528 29.5469 140.64 29.8047C140.752 30.0625 140.91 30.2617 141.113 30.4023C141.319 30.543 141.56 30.6133 141.836 30.6133ZM145.962 31.0312C145.85 31.0312 145.754 30.9909 145.673 30.9102C145.592 30.8294 145.552 30.7331 145.552 30.6211C145.552 30.5065 145.592 30.4102 145.673 30.332C145.754 30.2513 145.85 30.2109 145.962 30.2109C146.079 30.2109 146.177 30.2513 146.255 30.332C146.336 30.4102 146.376 30.5065 146.376 30.6211C146.376 30.7331 146.336 30.8294 146.255 30.9102C146.177 30.9909 146.079 31.0312 145.962 31.0312ZM59.0547 44.1328C58.6641 44.1328 58.3112 44.0638 57.9961 43.9258C57.6836 43.7878 57.4154 43.5898 57.1914 43.332C56.9701 43.0742 56.7995 42.7643 56.6797 42.4023C56.5599 42.0404 56.5 41.6341 56.5 41.1836V41.1758C56.5 40.582 56.6055 40.0651 56.8164 39.625C57.0273 39.1823 57.3242 38.8398 57.707 38.5977C58.0924 38.3529 58.5417 38.2305 59.0547 38.2305C59.4714 38.2305 59.8424 38.3047 60.168 38.4531C60.4961 38.599 60.7656 38.8047 60.9766 39.0703C61.1901 39.3359 61.3333 39.6471 61.4062 40.0039L61.4141 40.043H60.7031L60.6914 40.0039C60.5768 39.6393 60.3802 39.3607 60.1016 39.168C59.8229 38.9753 59.474 38.8789 59.0547 38.8789C58.6823 38.8789 58.3581 38.974 58.082 39.1641C57.8086 39.3516 57.5964 39.6172 57.4453 39.9609C57.2943 40.3047 57.2188 40.7096 57.2188 41.1758V41.1836C57.2188 41.5378 57.2604 41.8568 57.3438 42.1406C57.4297 42.4245 57.5521 42.6667 57.7109 42.8672C57.8724 43.0651 58.0664 43.2174 58.293 43.3242C58.5195 43.431 58.7747 43.4844 59.0586 43.4844C59.3945 43.4844 59.6888 43.418 59.9414 43.2852C60.1966 43.1497 60.3945 42.9622 60.5352 42.7227C60.6758 42.4831 60.7461 42.2044 60.7461 41.8867V41.75H59.1641V41.1328H61.4492V41.8203C61.4492 42.1667 61.3919 42.4818 61.2773 42.7656C61.1654 43.0495 61.0039 43.2943 60.793 43.5C60.582 43.7031 60.3294 43.8594 60.0352 43.9688C59.7409 44.0781 59.4141 44.1328 59.0547 44.1328ZM63.0094 44V39.7891H63.6891V40.4141H63.7516C63.8323 40.1927 63.969 40.0208 64.1617 39.8984C64.3544 39.776 64.5927 39.7148 64.8766 39.7148C64.9417 39.7148 65.0055 39.7188 65.068 39.7266C65.1331 39.7318 65.1826 39.737 65.2164 39.7422V40.4023C65.1461 40.3893 65.0771 40.3802 65.0094 40.375C64.9443 40.3672 64.874 40.3633 64.7984 40.3633C64.5823 40.3633 64.3909 40.4062 64.2242 40.4922C64.0576 40.5781 63.926 40.6979 63.8297 40.8516C63.7359 41.0052 63.6891 41.1849 63.6891 41.3906V44H63.0094ZM68.0695 44.0742C67.6711 44.0742 67.326 43.987 67.0344 43.8125C66.7453 43.6354 66.5214 43.3841 66.3625 43.0586C66.2063 42.7331 66.1281 42.3464 66.1281 41.8984V41.8906C66.1281 41.4401 66.2063 41.0521 66.3625 40.7266C66.5214 40.401 66.7453 40.151 67.0344 39.9766C67.326 39.8021 67.6711 39.7148 68.0695 39.7148C68.4706 39.7148 68.8156 39.8021 69.1047 39.9766C69.3938 40.151 69.6164 40.401 69.7727 40.7266C69.9315 41.0521 70.0109 41.4401 70.0109 41.8906V41.8984C70.0109 42.3464 69.9315 42.7331 69.7727 43.0586C69.6164 43.3841 69.3938 43.6354 69.1047 43.8125C68.8156 43.987 68.4706 44.0742 68.0695 44.0742ZM68.0695 43.4727C68.3352 43.4727 68.5604 43.4102 68.7453 43.2852C68.9302 43.1602 69.0708 42.9805 69.1672 42.7461C69.2661 42.5117 69.3156 42.2292 69.3156 41.8984V41.8906C69.3156 41.5573 69.2661 41.2734 69.1672 41.0391C69.0708 40.8047 68.9302 40.6263 68.7453 40.5039C68.5604 40.3789 68.3352 40.3164 68.0695 40.3164C67.8039 40.3164 67.5786 40.3789 67.3938 40.5039C67.2089 40.6263 67.0669 40.8047 66.968 41.0391C66.8716 41.2734 66.8234 41.5573 66.8234 41.8906V41.8984C66.8234 42.2292 66.8716 42.5117 66.968 42.7461C67.0669 42.9805 67.2089 43.1602 67.3938 43.2852C67.5786 43.4102 67.8039 43.4727 68.0695 43.4727ZM72.1219 44L70.9422 39.7891H71.6219L72.45 43.1562H72.5125L73.4539 39.7891H74.0984L75.0398 43.1562H75.1023L75.9305 39.7891H76.6062L75.4266 44H74.743L73.8016 40.7422H73.7391L72.8016 44H72.1219ZM77.8734 44.0391C77.7354 44.0391 77.6156 43.9896 77.5141 43.8906C77.4151 43.7891 77.3656 43.6693 77.3656 43.5312C77.3656 43.3906 77.4151 43.2708 77.5141 43.1719C77.6156 43.0729 77.7354 43.0234 77.8734 43.0234C78.0141 43.0234 78.1339 43.0729 78.2328 43.1719C78.3318 43.2708 78.3813 43.3906 78.3813 43.5312C78.3813 43.6693 78.3318 43.7891 78.2328 43.8906C78.1339 43.9896 78.0141 44.0391 77.8734 44.0391Z" fill="white"/>
<g clip-path="url(#clip0_12_126)">
<path d="M36.5 3H15.5C9.70101 3 5 7.70101 5 13.5V34.5C5 40.299 9.70101 45 15.5 45H36.5C42.299 45 47 40.299 47 34.5V13.5C47 7.70101 42.299 3 36.5 3Z" fill="url(#paint0_linear_12_126)"/>
<path d="M17.6 13.5H23.9V30.3H36.5V36.6H17.6V13.5Z" fill="white"/>
<path opacity="0.7" d="M31.25 19.275C31.25 18.4052 30.5448 17.7 29.675 17.7C28.8051 17.7 28.1 18.4052 28.1 19.275V24.525C28.1 25.3949 28.8051 26.1 29.675 26.1C30.5448 26.1 31.25 25.3949 31.25 24.525V19.275Z" fill="white"/>
<path opacity="0.5" d="M35.45 23.475C35.45 22.6051 34.7449 21.9 33.875 21.9C33.0052 21.9 32.3 22.6051 32.3 23.475V24.525C32.3 25.3948 33.0052 26.1 33.875 26.1C34.7449 26.1 35.45 25.3948 35.45 24.525V23.475Z" fill="white"/>
<g clip-path="url(#clip1_12_126)">
<mask id="mask0_12_126" style="mask-type:luminance" maskUnits="userSpaceOnUse" x="-3" y="10" width="42" height="42">
<path d="M28.5 10H7.5C1.70101 10 -3 14.701 -3 20.5V41.5C-3 47.299 1.70101 52 7.5 52H28.5C34.299 52 39 47.299 39 41.5V20.5C39 14.701 34.299 10 28.5 10Z" fill="white"/>
</mask>
<g mask="url(#mask0_12_126)">
<g opacity="0.26" filter="url(#filter0_f_12_126)">
<path d="M49 88C63.3594 88 75 76.3594 75 62C75 47.6406 63.3594 36 49 36C34.6406 36 23 47.6406 23 62C23 76.3594 34.6406 88 49 88Z" fill="#7C3AED"/>
</g>
<g opacity="0.18" filter="url(#filter1_f_12_126)">
<path d="M43 72C51.8366 72 59 64.8366 59 56C59 47.1634 51.8366 40 43 40C34.1634 40 27 47.1634 27 56C27 64.8366 34.1634 72 43 72Z" fill="#8B5CF6"/>
</g>
</g>
</g>
</g>
<defs>
<filter id="filter0_f_12_126" x="3" y="16" width="92" height="92" filterUnits="userSpaceOnUse" color-interpolation-filters="sRGB">
<feFlood flood-opacity="0" result="BackgroundImageFix"/>
<feBlend mode="normal" in="SourceGraphic" in2="BackgroundImageFix" result="shape"/>
<feGaussianBlur stdDeviation="10" result="effect1_foregroundBlur_12_126"/>
</filter>
<filter id="filter1_f_12_126" x="7" y="20" width="72" height="72" filterUnits="userSpaceOnUse" color-interpolation-filters="sRGB">
<feFlood flood-opacity="0" result="BackgroundImageFix"/>
<feBlend mode="normal" in="SourceGraphic" in2="BackgroundImageFix" result="shape"/>
<feGaussianBlur stdDeviation="10" result="effect1_foregroundBlur_12_126"/>
</filter>
<linearGradient id="paint0_linear_12_126" x1="5" y1="3" x2="4205" y2="4203" gradientUnits="userSpaceOnUse">
<stop stop-color="#6366F1"/>
<stop offset="0.5" stop-color="#7C3AED"/>
<stop offset="1" stop-color="#8B5CF6"/>
</linearGradient>
<clipPath id="clip0_12_126">
<rect width="42" height="42" fill="white" transform="translate(5 3)"/>
</clipPath>
<clipPath id="clip1_12_126">
<rect width="42" height="42" fill="white" transform="translate(-3 10)"/>
</clipPath>
</defs>
</svg>
